<svg width="98" height="18" viewBox="0 0 98 18" fill="none" xmlns="http://www.w3.org/2000/svg">
<path d="M17.4375 7.0875H10.9969L9 0.84375L7.00312 7.0875H0.5625L5.76562 10.9406L3.79688 17.1562L9 13.3031L14.2031 17.1562L12.2063 10.9125L17.4375 7.0875Z" fill="#FFCE31"/>
<path d="M37.4375 7.0875H30.9969L29 0.84375L27.0031 7.0875H20.5625L25.7656 10.9406L23.7969 17.1562L29 13.3031L34.2031 17.1562L32.2063 10.9125L37.4375 7.0875Z" fill="#FFCE31"/>
<path d="M57.4375 7.0875H50.9969L49 0.84375L47.0031 7.0875H40.5625L45.7656 10.9406L43.7969 17.1562L49 13.3031L54.2031 17.1562L52.2063 10.9125L57.4375 7.0875Z" fill="#FFCE31"/>
<path d="M77.4375 7.0875H70.9969L69 0.84375L67.0031 7.0875H60.5625L65.7656 10.9406L63.7969 17.1562L69 13.3031L74.2031 17.1562L72.2063 10.9125L77.4375 7.0875Z" fill="#FFCE31"/>
<path d="M97.4375 7.0875H90.9969L89 0.84375L87.0031 7.0875H80.5625L85.7656 10.9406L83.7969 17.1562L89 13.3031L94.2031 17.1562L92.2063 10.9125L97.4375 7.0875Z" fill="#FFCE31"/>
</svg>
