<svg width="187" height="138" viewBox="0 0 187 138" fill="none" xmlns="http://www.w3.org/2000/svg">
<g opacity="0.02">
<path fill-rule="evenodd" clip-rule="evenodd" d="M-12 27.5346C-12 20.232 -9.37925 13.2284 -4.71428 8.0647C-0.0493145 2.90096 6.27774 1.90694e-07 12.875 1.90694e-07H106.156C112.19 -0.000785397 118.018 2.4257 122.555 6.82759C127.092 11.2295 130.029 17.3067 130.82 23.9276L169.5 4.90116C171.394 3.96735 173.468 3.57212 175.534 3.75139C177.601 3.93067 179.594 4.67877 181.333 5.92769C183.071 7.17661 184.501 8.88675 185.49 10.9027C186.48 12.9186 186.999 15.1763 187 17.4707V120.202C186.998 122.495 186.479 124.751 185.49 126.765C184.501 128.779 183.073 130.488 181.336 131.737C179.599 132.985 177.608 133.734 175.543 133.915C173.478 134.096 171.406 133.703 169.513 132.772L130.82 113.746C130.029 120.366 127.092 126.444 122.555 130.846C118.018 135.247 112.19 137.674 106.156 137.673H12.875C6.27774 137.673 -0.0493145 134.772 -4.71428 129.608C-9.37925 124.445 -12 117.441 -12 110.138V27.5346ZM131.031 98.7804L174.562 120.202V17.4707L131.031 38.8926V98.7804ZM12.875 13.7673C9.57637 13.7673 6.41284 15.2178 4.08036 17.7997C1.74788 20.3815 0.4375 23.8833 0.4375 27.5346V110.138C0.4375 113.79 1.74788 117.292 4.08036 119.873C6.41284 122.455 9.57637 123.906 12.875 123.906H106.156C109.455 123.906 112.618 122.455 114.951 119.873C117.283 117.292 118.594 113.79 118.594 110.138V27.5346C118.594 23.8833 117.283 20.3815 114.951 17.7997C112.618 15.2178 109.455 13.7673 106.156 13.7673H12.875Z" fill="black"/>
</g>
</svg>
