<svg width="13" height="13" viewBox="0 0 13 13" fill="none" xmlns="http://www.w3.org/2000/svg">
<path d="M6.5 9C7.16304 9 7.79893 8.73661 8.26777 8.26777C8.73661 7.79893 9 7.16304 9 6.5C9 5.83696 8.73661 5.20107 8.26777 4.73223C7.79893 4.26339 7.16304 4 6.5 4C5.83696 4 5.20107 4.26339 4.73223 4.73223C4.26339 5.20107 4 5.83696 4 6.5C4 7.16304 4.26339 7.79893 4.73223 8.26777C5.20107 8.73661 5.83696 9 6.5 9V9Z" stroke="white" stroke-linecap="round" stroke-linejoin="round"/>
<path d="M0.875 9V4C0.875 3.1712 1.20424 2.37634 1.79029 1.79029C2.37634 1.20424 3.1712 0.875 4 0.875H9C9.8288 0.875 10.6237 1.20424 11.2097 1.79029C11.7958 2.37634 12.125 3.1712 12.125 4V9C12.125 9.8288 11.7958 10.6237 11.2097 11.2097C10.6237 11.7958 9.8288 12.125 9 12.125H4C3.1712 12.125 2.37634 11.7958 1.79029 11.2097C1.20424 10.6237 0.875 9.8288 0.875 9Z" stroke="white"/>
<path d="M9.9375 3.06843L9.94333 3.06201" stroke="white" stroke-width="1.5" stroke-linecap="round" stroke-linejoin="round"/>
</svg>
