<?xml version="1.0" encoding="iso-8859-1"?>
<!-- Generator: Adobe Illustrator 21.0.0, SVG Export Plug-In . SVG Version: 6.00 Build 0)  -->
<svg version="1.1" id="Layer_1" xmlns="http://www.w3.org/2000/svg" xmlns:xlink="http://www.w3.org/1999/xlink" x="0px" y="0px"
	 viewBox="0 0 100 100" style="enable-background:new 0 0 100 100;" xml:space="preserve">
<g>
	<path style="fill:#231F20;" d="M71.181,11.694c-0.228-0.51-0.721-0.851-1.279-0.884c-0.546-0.034-1.087,0.246-1.375,0.725
		l-6.029,10.037c-0.427,0.71-0.197,1.632,0.513,2.059c0.71,0.427,1.632,0.196,2.058-0.514l3.017-5.023
		c-1.09,9.996-6.258,19.957-14.563,27.834c-9.838,9.331-22.55,14.47-35.794,14.47c-0.829,0-1.5,0.671-1.5,1.5
		c0,0.828,0.671,1.5,1.5,1.5c14.016,0,27.461-5.431,37.859-15.293c8.736-8.286,14.214-18.786,15.453-29.381l2.238,5
		c0.25,0.557,0.796,0.888,1.37,0.888c0.205,0,0.413-0.042,0.612-0.131c0.756-0.338,1.095-1.226,0.756-1.982L71.181,11.694z"/>
	<path style="fill:#231F20;" d="M18.102,71.433c-0.829,0-1.5,0.671-1.5,1.5v14.76c0,0.829,0.671,1.5,1.5,1.5s1.5-0.671,1.5-1.5
		v-14.76C19.602,72.104,18.931,71.433,18.102,71.433z"/>
	<path style="fill:#231F20;" d="M40.704,65.175c-0.829,0-1.5,0.671-1.5,1.5v21.018c0,0.829,0.671,1.5,1.5,1.5s1.5-0.671,1.5-1.5
		V66.675C42.204,65.847,41.533,65.175,40.704,65.175z"/>
	<path style="fill:#231F20;" d="M62.794,50.254c-0.829,0-1.5,0.672-1.5,1.5v35.938c0,0.829,0.671,1.5,1.5,1.5s1.5-0.671,1.5-1.5
		V51.754C64.294,50.926,63.623,50.254,62.794,50.254z"/>
	<path style="fill:#231F20;" d="M82.272,14.316c-0.829,0-1.5,0.671-1.5,1.5v71.876c0,0.829,0.671,1.5,1.5,1.5s1.5-0.671,1.5-1.5
		V15.816C83.772,14.988,83.101,14.316,82.272,14.316z"/>
</g>
</svg>
