<svg width="124" height="272" viewBox="0 0 124 272" fill="none" xmlns="http://www.w3.org/2000/svg">
<g opacity="0.02" clip-path="url(#clip0_1_58014)">
<path d="M117.197 64.6173C115.422 64.6604 113.735 65.3925 112.496 66.6572C111.256 67.922 110.563 69.619 110.563 71.386V135.638H100.613V80.3007V57.1883C100.797 49.5825 99.4511 42.0169 96.6544 34.9366C93.8576 27.8563 89.6667 21.4044 84.3281 15.9604C78.9895 10.5164 72.6111 6.19027 65.5682 3.23658C58.5253 0.282896 50.9601 -1.23871 43.3177 -1.23871C35.6753 -1.23871 28.1101 0.282896 21.0672 3.23658C14.0243 6.19027 7.64589 10.5164 2.3073 15.9604C-3.03128 21.4044 -7.22224 27.8563 -10.019 34.9366C-12.8157 42.0169 -14.1618 49.5825 -13.978 57.1883V135.771H-24.3923V71.386C-24.3923 69.5908 -25.1087 67.8692 -26.3838 66.5998C-27.6589 65.3304 -29.3883 64.6173 -31.1915 64.6173C-32.9948 64.6173 -34.7242 65.3304 -35.9993 66.5998C-37.2744 67.8692 -37.9907 69.5908 -37.9907 71.386V153.303C-37.9571 173.504 -30.3194 192.96 -16.5846 207.831C-2.84977 222.702 15.9848 231.909 36.2034 233.635V258.464H22.1739C20.3706 258.464 18.6412 259.177 17.3661 260.447C16.091 261.716 15.3747 263.438 15.3747 265.233C15.3747 267.028 16.091 268.75 17.3661 270.019C18.6412 271.289 20.3706 272.002 22.1739 272.002H63.8645C65.6678 272.002 67.3972 271.289 68.6723 270.019C69.9474 268.75 70.6637 267.028 70.6637 265.233C70.6637 263.438 69.9474 261.716 68.6723 260.447C67.3972 259.177 65.6678 258.464 63.8645 258.464H49.8018V233.635C70.0204 231.909 88.855 222.702 102.59 207.831C116.325 192.96 123.962 173.504 123.996 153.303V71.386C123.996 70.4971 123.82 69.6169 123.478 68.7957C123.137 67.9745 122.636 67.2283 122.005 66.5998C121.373 65.9713 120.624 65.4727 119.799 65.1326C118.974 64.7924 118.09 64.6173 117.197 64.6173ZM36.2034 220.065C19.6008 218.359 4.22099 210.593 -6.96888 198.264C-18.1588 185.936 -24.3657 169.919 -24.3923 153.303V149.176H-14.2765V153.402C-14.2566 167.348 -9.11236 180.805 0.186413 191.236C9.48518 201.667 22.296 208.351 36.2034 210.027V220.065ZM43.0026 196.952C31.4117 196.935 20.3015 192.339 12.1117 184.173C3.92185 176.008 -0.678085 164.941 -0.678074 153.402V140.195H20.7145C22.3858 140.195 23.9887 139.534 25.1705 138.357C26.3523 137.181 27.0162 135.585 27.0162 133.922C27.0162 132.258 26.3523 130.662 25.1705 129.486C23.9887 128.309 22.3858 127.648 20.7145 127.648H-0.678074V108.96H20.7145C22.3858 108.96 23.9887 108.299 25.1705 107.123C26.3523 105.946 27.0162 104.351 27.0162 102.687C27.0162 101.023 26.3523 99.4273 25.1705 98.2508C23.9887 97.0743 22.3858 96.4134 20.7145 96.4134H-0.678074V77.6593H20.7145C22.3858 77.6593 23.9887 76.9984 25.1705 75.8219C26.3523 74.6454 27.0162 73.0498 27.0162 71.386C27.0162 69.7222 26.3523 68.1265 25.1705 66.95C23.9887 65.7735 22.3858 65.1126 20.7145 65.1126H-0.678074V57.0563C-0.838974 51.2428 0.172268 45.4562 2.2959 40.0384C4.41953 34.6206 7.61247 29.6815 11.6861 25.513C15.7596 21.3445 20.6312 18.031 26.0129 15.7685C31.3946 13.506 37.1773 12.3403 43.0192 12.3403C48.8611 12.3403 54.6438 13.506 60.0255 15.7685C65.4072 18.031 70.2787 21.3445 74.3523 25.513C78.4259 29.6815 81.6188 34.6206 83.7425 40.0384C85.8661 45.4562 86.8773 51.2428 86.7164 57.0563V65.1126H65.2907C63.6194 65.1126 62.0165 65.7735 60.8347 66.95C59.6529 68.1265 58.989 69.7222 58.989 71.386C58.989 73.0498 59.6529 74.6454 60.8347 75.8219C62.0165 76.9984 63.6194 77.6593 65.2907 77.6593H86.7164V96.4464H65.2907C63.6194 96.4464 62.0165 97.1073 60.8347 98.2838C59.6529 99.4603 58.989 101.056 58.989 102.72C58.989 104.384 59.6529 105.979 60.8347 107.156C62.0165 108.332 63.6194 108.993 65.2907 108.993H86.7164V127.813H65.2907C63.6194 127.813 62.0165 128.474 60.8347 129.651C59.6529 130.827 58.989 132.423 58.989 134.087C58.989 135.75 59.6529 137.346 60.8347 138.523C62.0165 139.699 63.6194 140.36 65.2907 140.36H86.7164V153.567C86.6551 165.072 82.0236 176.084 73.8332 184.201C65.6429 192.317 54.5592 196.878 43.0026 196.886V196.952ZM110.398 153.369C110.362 169.975 104.15 185.98 92.9604 198.297C81.7707 210.613 66.3959 218.367 49.8018 220.065V210.159C63.7351 208.481 76.5679 201.779 85.8752 191.321C95.1824 180.863 100.319 167.374 100.315 153.402V149.176H110.265L110.398 153.369Z" fill="#3C3C3B"/>
</g>
<defs>
<clipPath id="clip0_1_58014">
<rect width="162" height="272" fill="white" transform="translate(-38)"/>
</clipPath>
</defs>
</svg>
