<?xml version="1.0" encoding="UTF-8"?> <svg xmlns="http://www.w3.org/2000/svg" width="64" height="64" viewBox="0 0 64 64" fill="none"> <path d="M36.9998 60C36.0109 60 35.0442 59.7068 34.2219 59.1574C33.3997 58.6079 32.7588 57.8271 32.3804 56.9134C32.0019 55.9998 31.9029 54.9945 32.0958 54.0245C32.2888 53.0546 32.765 52.1637 33.4642 51.4645C34.1635 50.7652 35.0544 50.289 36.0243 50.0961C36.9942 49.9031 37.9995 50.0022 38.9132 50.3806C39.8268 50.759 40.6077 51.3999 41.1571 52.2222C41.7065 53.0444 41.9998 54.0111 41.9998 55C41.9998 56.3261 41.473 57.5979 40.5353 58.5355C39.5976 59.4732 38.3258 60 36.9998 60ZM36.9998 52C36.4064 52 35.8264 52.176 35.333 52.5056C34.8397 52.8352 34.4552 53.3038 34.2281 53.852C34.0011 54.4001 33.9416 55.0033 34.0574 55.5853C34.1732 56.1672 34.4589 56.7018 34.8784 57.1213C35.298 57.5409 35.8325 57.8266 36.4145 57.9424C36.9964 58.0581 37.5996 57.9987 38.1478 57.7716C38.696 57.5446 39.1645 57.1601 39.4942 56.6667C39.8238 56.1734 39.9998 55.5933 39.9998 55C39.9998 54.2044 39.6837 53.4413 39.1211 52.8787C38.5585 52.3161 37.7954 52 36.9998 52Z" fill="#F96045"></path> <path d="M51.9998 50C51.2086 50 50.4353 49.7654 49.7775 49.3259C49.1197 48.8864 48.607 48.2616 48.3042 47.5307C48.0015 46.7998 47.9223 45.9956 48.0766 45.2196C48.231 44.4437 48.6119 43.731 49.1713 43.1716C49.7307 42.6122 50.4435 42.2312 51.2194 42.0769C51.9953 41.9225 52.7996 42.0017 53.5305 42.3045C54.2614 42.6072 54.8861 43.1199 55.3256 43.7777C55.7652 44.4355 55.9998 45.2089 55.9998 46C55.9998 47.0609 55.5783 48.0783 54.8282 48.8284C54.078 49.5786 53.0606 50 51.9998 50ZM51.9998 44C51.6042 44 51.2175 44.1173 50.8886 44.3371C50.5597 44.5568 50.3034 44.8692 50.152 45.2346C50.0006 45.6001 49.961 46.0022 50.0382 46.3902C50.1154 46.7781 50.3058 47.1345 50.5855 47.4142C50.8652 47.6939 51.2216 47.8844 51.6096 47.9616C51.9975 48.0387 52.3997 47.9991 52.7651 47.8478C53.1306 47.6964 53.4429 47.44 53.6627 47.1111C53.8825 46.7822 53.9998 46.3956 53.9998 46C53.9998 45.4696 53.789 44.9609 53.414 44.5858C53.0389 44.2107 52.5302 44 51.9998 44Z" fill="#F96045"></path> <path d="M21.7799 55.0999C20.8091 55.0975 19.8601 54.8125 19.0486 54.2798C18.2371 53.7471 17.5982 52.9897 17.2099 52.0999L4.55988 23.84C4.29104 23.2405 4.14297 22.594 4.12413 21.9373C4.10529 21.2806 4.21605 20.6266 4.45008 20.0127C4.68411 19.3989 5.03682 18.8371 5.48806 18.3596C5.9393 17.8822 6.48021 17.4983 7.07988 17.23L28.6199 7.60995C28.7406 7.54631 28.8732 7.50807 29.0093 7.49758C29.1454 7.4871 29.2822 7.50459 29.4113 7.54899C29.5404 7.59339 29.659 7.66375 29.7599 7.75573C29.8608 7.84772 29.9417 7.95938 29.9978 8.08385C30.0539 8.20831 30.0839 8.34294 30.086 8.47944C30.088 8.61594 30.0621 8.75141 30.0099 8.87753C29.9576 9.00364 29.8801 9.11771 29.782 9.21272C29.684 9.30772 29.5676 9.38165 29.4399 9.42995L7.89988 19.05C7.53515 19.21 7.20595 19.4412 6.9315 19.7298C6.65704 20.0185 6.44282 20.359 6.30133 20.7313C6.15984 21.1036 6.09392 21.5004 6.1074 21.8985C6.12089 22.2966 6.21351 22.688 6.37988 23.05L18.9999 51.32C19.16 51.6847 19.3911 52.0139 19.6798 52.2883C19.9685 52.5628 20.3089 52.777 20.6812 52.9185C21.0536 53.06 21.4504 53.1259 21.8485 53.1124C22.2465 53.0989 22.638 53.0063 22.9999 52.84L29.3199 50C29.4406 49.9363 29.5732 49.8981 29.7093 49.8876C29.8454 49.8771 29.9822 49.8946 30.1113 49.939C30.2404 49.9834 30.359 50.0537 30.4599 50.1457C30.5608 50.2377 30.6417 50.3494 30.6978 50.4738C30.7539 50.5983 30.7839 50.7329 30.786 50.8694C30.788 51.0059 30.7621 51.1414 30.7099 51.2675C30.6576 51.3936 30.5801 51.5077 30.482 51.6027C30.384 51.6977 30.2676 51.7717 30.1399 51.82L23.8099 54.65C23.1733 54.9437 22.481 55.0972 21.7799 55.0999Z" fill="#4D4D4D"></path> <path d="M22.2098 24.7599C21.9686 24.7627 21.7346 24.6782 21.5508 24.522C21.3671 24.3658 21.2459 24.1484 21.2098 23.9099C21.0417 23.0802 21.018 22.2277 21.1398 21.3899V21.3899C21.3038 20.2646 21.72 19.1908 22.3572 18.2488C22.9945 17.3068 23.8363 16.521 24.8198 15.9499C24.9732 15.866 25.1449 15.8214 25.3198 15.8199C25.5495 15.8163 25.7734 15.892 25.9539 16.034C26.1345 16.1761 26.2606 16.3761 26.311 16.6002C26.3615 16.8243 26.3332 17.059 26.231 17.2647C26.1288 17.4705 25.9589 17.6348 25.7498 17.7299C25.0517 18.1456 24.4546 18.7111 24.0015 19.3855C23.5484 20.0599 23.2507 20.8265 23.1298 21.6299C23.1251 21.6497 23.1251 21.6702 23.1298 21.6899C23.0397 22.322 23.06 22.9648 23.1898 23.5899C23.1947 23.6599 23.1947 23.73 23.1898 23.7999C23.1796 24.0547 23.0725 24.296 22.8903 24.4745C22.7082 24.6529 22.4647 24.755 22.2098 24.7599Z" fill="#4D4D4D"></path> <path d="M16.5598 37C16.3675 36.9996 16.1793 36.9438 16.0179 36.8391C15.8565 36.7345 15.7287 36.5855 15.6498 36.41L11.1598 26.41C11.109 26.2881 11.0828 26.1572 11.0828 26.025C11.0828 25.8929 11.109 25.762 11.1598 25.64C11.2544 25.3957 11.4411 25.1982 11.6798 25.09L21.7298 20.6C21.9457 20.5038 22.1887 20.4872 22.4157 20.5531C22.6427 20.619 22.839 20.7632 22.9698 20.96C23.0876 21.1311 23.1536 21.3325 23.1598 21.54C23.1619 21.7842 23.0746 22.0207 22.9143 22.2049C22.7541 22.3891 22.5319 22.5083 22.2898 22.54L13.4098 26.54L17.2098 35.04C17.4505 35.1368 17.6441 35.3232 17.7498 35.56C17.8537 35.8028 17.8573 36.0768 17.7599 36.3222C17.6624 36.5676 17.4719 36.7646 17.2298 36.87L16.9798 36.99C16.8418 37.0203 16.6992 37.0237 16.5598 37Z" fill="#4D4D4D"></path> <path d="M28.9999 46.53C28.8584 46.5293 28.7186 46.4986 28.5899 46.44L18.4799 41.92C17.3147 41.3965 16.394 40.4469 15.9068 39.2661C15.4196 38.0853 15.4028 36.7628 15.8599 35.57C15.8752 35.4962 15.9022 35.4253 15.9399 35.36L21.2699 23.43C21.2672 23.4034 21.2672 23.3766 21.2699 23.35L24.3899 16.35L24.4499 16.23L28.6099 6.99998C29.1518 5.79141 30.1512 4.84727 31.3886 4.37481C32.626 3.90235 34.0003 3.94017 35.2099 4.47998L57.1199 14.27C57.7195 14.5383 58.2604 14.9222 58.7117 15.3997C59.1629 15.8772 59.5156 16.4389 59.7497 17.0528C59.9837 17.6666 60.0944 18.3206 60.0756 18.9773C60.0568 19.634 59.9087 20.2805 59.6399 20.88L54.9299 31.43C54.8816 31.5577 54.8076 31.6741 54.7126 31.7721C54.6176 31.8702 54.5035 31.9477 54.3774 32C54.2513 32.0522 54.1158 32.0781 53.9793 32.0761C53.8428 32.074 53.7082 32.044 53.5838 31.9879C53.4593 31.9318 53.3476 31.8509 53.2556 31.75C53.1637 31.6491 53.0933 31.5305 53.0489 31.4014C53.0045 31.2723 52.987 31.1355 52.9975 30.9994C53.008 30.8633 53.0462 30.7308 53.1099 30.61L57.8199 20.07C57.9862 19.7081 58.0788 19.3166 58.0923 18.9186C58.1058 18.5205 58.0399 18.1237 57.8984 17.7513C57.7569 17.379 57.5427 17.0386 57.2682 16.7499C56.9938 16.4612 56.6646 16.2301 56.2999 16.07L34.3899 6.30998C33.6645 5.98786 32.8411 5.96628 32.0999 6.24998C31.7313 6.39061 31.3941 6.60255 31.1075 6.87366C30.8209 7.14478 30.5907 7.46975 30.4299 7.82998L26.2499 17.19L26.1899 17.31L23.1899 24.1C23.1925 24.1266 23.1925 24.1534 23.1899 24.18L17.8499 36.18C17.8485 36.16 17.8485 36.14 17.8499 36.12C17.8379 36.1812 17.8211 36.2414 17.7999 36.3C17.5237 37.0057 17.5248 37.7898 17.8031 38.4948C18.0813 39.1997 18.6161 39.7732 19.2999 40.1L29.4199 44.62C29.6281 44.7148 29.7975 44.8783 29.8998 45.083C30.0021 45.2877 30.0311 45.5213 29.9819 45.7448C29.9328 45.9683 29.8085 46.1681 29.6298 46.311C29.451 46.4539 29.2287 46.5312 28.9999 46.53Z" fill="#4D4D4D"></path> <path d="M35.9998 33.2399C35.8583 33.2392 35.7186 33.2086 35.5898 33.1499L30.0398 30.6699C29.8932 30.591 29.7687 30.4768 29.6774 30.3376C29.5862 30.1984 29.5311 30.0387 29.5172 29.8728C29.5033 29.707 29.531 29.5403 29.5978 29.3878C29.6646 29.2354 29.7684 29.1021 29.8998 28.9999L35.1398 25.1999L35.2298 25.1399L39.6098 21.9599C39.7547 21.8596 39.9234 21.7995 40.099 21.7854C40.2746 21.7714 40.4508 21.804 40.6098 21.8799C40.7747 21.963 40.9134 22.0901 41.0105 22.2472C41.1076 22.4043 41.1592 22.5852 41.1598 22.7699L41.8798 29.7699C41.8929 29.9012 41.8801 30.0338 41.8419 30.1602C41.8038 30.2865 41.7412 30.4041 41.6576 30.5063C41.574 30.6084 41.4712 30.6931 41.3549 30.7555C41.2386 30.8179 41.1111 30.8568 40.9798 30.8699C40.8485 30.883 40.7159 30.8702 40.5895 30.832C40.4632 30.7939 40.3455 30.7313 40.2434 30.6477C40.1413 30.5641 40.0566 30.4613 39.9942 30.345C39.9318 30.2287 39.8929 30.1012 39.8798 29.9699L39.3298 24.6399L36.2698 26.8599L36.1698 26.9199L32.4198 29.6399L36.4198 31.4199C36.5877 31.5329 36.7174 31.6942 36.7917 31.8825C36.866 32.0707 36.8814 32.2771 36.8359 32.4744C36.7903 32.6716 36.6861 32.8503 36.5368 32.987C36.3875 33.1237 36.2003 33.2119 35.9998 33.2399Z" fill="#4D4D4D"></path> <path d="M35.6 26.9999C34.5657 26.9941 33.5439 26.7727 32.6 26.3499C31.408 25.8185 30.3754 24.9853 29.604 23.9326C28.8327 22.88 28.3494 21.6442 28.2019 20.3476C28.0544 19.051 28.2477 17.7382 28.7629 16.5392C29.278 15.3402 30.0971 14.2963 31.1392 13.5107C32.1813 12.7252 33.4103 12.2252 34.7049 12.06C35.9994 11.8949 37.3146 12.0704 38.5205 12.5692C39.7264 13.0681 40.7813 13.8729 41.581 14.9042C42.3806 15.9356 42.8973 17.1577 43.08 18.4499C43.2912 19.8494 43.0932 21.2802 42.51 22.5699C42.1636 23.3562 41.6793 24.0742 41.08 24.6899C40.9924 24.796 40.8839 24.8829 40.7612 24.9451C40.6385 25.0074 40.5043 25.0437 40.367 25.0517C40.2297 25.0597 40.0922 25.0393 39.9631 24.9918C39.834 24.9443 39.7161 24.8706 39.6167 24.7754C39.5174 24.6802 39.4388 24.5656 39.3858 24.4386C39.3328 24.3116 39.3066 24.1751 39.3088 24.0376C39.311 23.9 39.3415 23.7644 39.3985 23.6392C39.4555 23.514 39.5377 23.4019 39.64 23.3099C40.0593 22.8503 40.3974 22.3228 40.64 21.7499C41.061 20.8097 41.2033 19.7685 41.05 18.7499C40.917 17.8016 40.5387 16.9045 39.9526 16.1472C39.3665 15.39 38.5929 14.7989 37.7082 14.4324C36.8236 14.066 35.8585 13.9368 34.9087 14.0577C33.9588 14.1787 33.0569 14.5455 32.2923 15.1219C31.5277 15.6984 30.9268 16.4645 30.5491 17.3444C30.1715 18.2243 30.0301 19.1876 30.1389 20.139C30.2478 21.0903 30.6031 21.9968 31.1698 22.7686C31.7365 23.5405 32.4949 24.151 33.37 24.5399C34.1003 24.8733 34.8975 25.0341 35.7 25.0099C35.9652 25.0099 36.2195 25.1152 36.4071 25.3028C36.5946 25.4903 36.7 25.7447 36.7 26.0099C36.7 26.2751 36.5946 26.5294 36.4071 26.717C36.2195 26.9045 35.9652 27.0099 35.7 27.0099L35.6 26.9999Z" fill="#4D4D4D"></path> <path d="M40.2 23.73C39.9347 23.73 39.6804 23.6246 39.4928 23.4371C39.3053 23.2496 39.2 22.9952 39.2 22.73C39.2 22.5322 39.2586 22.3389 39.3685 22.1744C39.4784 22.01 39.6345 21.8818 39.8173 21.8061C40 21.7304 40.2011 21.7106 40.395 21.7492C40.589 21.7878 40.7672 21.883 40.9071 22.0229C41.0469 22.1627 41.1422 22.3409 41.1807 22.5349C41.2193 22.7289 41.1995 22.9299 41.1238 23.1127C41.0481 23.2954 40.92 23.4516 40.7555 23.5615C40.5911 23.6713 40.3977 23.73 40.2 23.73Z" fill="#4D4D4D"></path> <path d="M49.3 30.3299C49.1585 30.3293 49.0188 30.2986 48.89 30.2399C48.649 30.1308 48.4611 29.9306 48.3673 29.6832C48.2736 29.4358 48.2818 29.1613 48.39 28.9199L50.81 23.4999L41.81 19.4999L41.57 19.4099C41.3379 19.2918 41.161 19.0878 41.0769 18.8413C40.9929 18.5948 41.0083 18.3252 41.12 18.0899C41.2362 17.861 41.436 17.6856 41.678 17.6C41.92 17.5144 42.1857 17.5251 42.42 17.6299L52.42 22.1199C52.6587 22.228 52.8454 22.4255 52.94 22.6699C52.9909 22.7919 53.0171 22.9228 53.0171 23.0549C53.0171 23.1871 52.9909 23.3179 52.94 23.4399L50.11 29.7699C50.0348 29.9252 49.9206 30.0584 49.7787 30.1565C49.6368 30.2547 49.4719 30.3144 49.3 30.3299V30.3299Z" fill="#4D4D4D"></path> <path d="M45 59C45 58.7348 45.1054 58.4804 45.2929 58.2929C45.4804 58.1054 45.7348 58 46 58C46.2652 58 46.5196 58.1054 46.7071 58.2929C46.8946 58.4804 47 58.7348 47 59C47 59.2652 46.8946 59.5196 46.7071 59.7071C46.5196 59.8946 46.2652 60 46 60C45.7348 60 45.4804 59.8946 45.2929 59.7071C45.1054 59.5196 45 59.2652 45 59ZM49.07 58.67C48.988 58.418 49.0093 58.1438 49.1293 57.9076C49.2493 57.6713 49.4582 57.4924 49.71 57.41V57.41C49.962 57.328 50.2362 57.3493 50.4724 57.4693C50.7087 57.5893 50.8876 57.7982 50.97 58.05C51.052 58.302 51.0307 58.5762 50.9107 58.8124C50.7907 59.0487 50.5818 59.2276 50.33 59.31C50.2275 59.3286 50.1225 59.3286 50.02 59.31V59.31C49.8169 59.3114 49.6181 59.251 49.4502 59.1366C49.2822 59.0223 49.1531 58.8595 49.08 58.67H49.07ZM52.83 57.1C52.6761 56.8861 52.6129 56.62 52.6541 56.3597C52.6953 56.0995 52.8376 55.866 53.05 55.71C53.1563 55.6322 53.2768 55.5763 53.4048 55.5452C53.5328 55.5142 53.6656 55.5087 53.7957 55.5292C53.9258 55.5496 54.0505 55.5956 54.1628 55.6643C54.2751 55.7331 54.3727 55.8234 54.45 55.93V55.93C54.6039 56.1439 54.6671 56.41 54.6259 56.6702C54.5847 56.9305 54.4424 57.164 54.23 57.32C54.0584 57.4442 53.8518 57.5108 53.64 57.51C53.4839 57.5088 53.3303 57.4712 53.1913 57.4C53.0524 57.3288 52.9321 57.226 52.84 57.1H52.83ZM55.92 54.45C55.8134 54.3727 55.7231 54.2751 55.6543 54.1628C55.5856 54.0505 55.5396 53.9258 55.5192 53.7957C55.4987 53.6656 55.5042 53.5328 55.5352 53.4048C55.5663 53.2768 55.6223 53.1563 55.7 53.05C55.7773 52.9434 55.8749 52.8531 55.9872 52.7843C56.0995 52.7156 56.2242 52.6696 56.3543 52.6492C56.4844 52.6287 56.6172 52.6342 56.7452 52.6652C56.8731 52.6963 56.9937 52.7523 57.1 52.83C57.2066 52.9073 57.2969 53.0049 57.3657 53.1172C57.4344 53.2295 57.4804 53.3542 57.5008 53.4843C57.5213 53.6144 57.5158 53.7472 57.4848 53.8752C57.4537 54.0032 57.3977 54.1237 57.32 54.23C57.2269 54.3574 57.105 54.461 56.9642 54.5322C56.8234 54.6035 56.6678 54.6404 56.51 54.64C56.3016 54.6387 56.0988 54.5722 55.93 54.45H55.92ZM58.06 51C57.8082 50.9176 57.5993 50.7387 57.4793 50.5024C57.3593 50.2662 57.338 49.992 57.42 49.74C57.5024 49.4882 57.6813 49.2793 57.9176 49.1593C58.1538 49.0393 58.428 49.018 58.68 49.1C58.9318 49.1824 59.1407 49.3613 59.2607 49.5976C59.3807 49.8338 59.402 50.108 59.32 50.36C59.2522 50.5688 59.1175 50.7496 58.9368 50.8743C58.7561 50.999 58.5393 51.0607 58.32 51.05V51.05C58.2317 51.0437 58.1444 51.0269 58.06 51V51ZM32 46C32 45.7348 32.1054 45.4804 32.2929 45.2929C32.4804 45.1054 32.7348 45 33 45C33.2652 45 33.5196 45.1054 33.7071 45.2929C33.8946 45.4804 34 45.7348 34 46C34 46.2652 33.8946 46.5196 33.7071 46.7071C33.5196 46.8946 33.2652 47 33 47C32.7348 47 32.4804 46.8946 32.2929 46.7071C32.1054 46.5196 32 46.2652 32 46V46ZM58 46C58 45.7348 58.1054 45.4804 58.2929 45.2929C58.4804 45.1054 58.7348 45 59 45C59.2652 45 59.5196 45.1054 59.7071 45.2929C59.8946 45.4804 60 45.7348 60 46C60 46.2652 59.8946 46.5196 59.7071 46.7071C59.5196 46.8946 59.2652 47 59 47C58.7348 47 58.4804 46.8946 58.2929 46.7071C58.1054 46.5196 58 46.2652 58 46ZM33.32 43C33.1944 42.9602 33.0779 42.896 32.9772 42.8111C32.8765 42.7262 32.7935 42.6222 32.7331 42.5051C32.6727 42.388 32.636 42.2601 32.6252 42.1288C32.6144 41.9975 32.6296 41.8654 32.67 41.74C32.7524 41.4882 32.9313 41.2793 33.1676 41.1593C33.4038 41.0393 33.678 41.018 33.93 41.1C34.0556 41.1398 34.1721 41.204 34.2728 41.2889C34.3735 41.3738 34.4565 41.4778 34.5169 41.5949C34.5773 41.712 34.614 41.8399 34.6248 41.9712C34.6356 42.1025 34.6204 42.2346 34.58 42.36C34.5122 42.5688 34.3775 42.7496 34.1968 42.8743C34.0161 42.999 33.7993 43.0607 33.58 43.05V43.05C33.4915 43.0449 33.4041 43.0281 33.32 43V43ZM57.4 42.29C57.3539 42.166 57.3328 42.034 57.3381 41.9018C57.3433 41.7695 57.3747 41.6397 57.4306 41.5197C57.4864 41.3997 57.5654 41.292 57.6632 41.2028C57.7609 41.1135 57.8754 41.0446 58 41C58.2507 40.9175 58.5237 40.9375 58.7598 41.0555C58.9958 41.1735 59.1756 41.38 59.26 41.63C59.3024 41.7547 59.3197 41.8866 59.3109 42.0181C59.3021 42.1495 59.2675 42.2779 59.2089 42.3959C59.1504 42.5139 59.0691 42.6192 58.9698 42.7057C58.8704 42.7922 58.7549 42.8583 58.63 42.9V42.9C58.5238 42.9144 58.4162 42.9144 58.31 42.9V42.9C58.1108 42.8946 57.9178 42.8299 57.7556 42.7141C57.5935 42.5983 57.4697 42.4367 57.4 42.25V42.29ZM34.88 39.19C34.666 39.0355 34.5217 38.8028 34.4786 38.5424C34.4356 38.282 34.4972 38.0152 34.65 37.8V37.8C34.7265 37.6926 34.8236 37.6015 34.9355 37.5317C35.0474 37.462 35.172 37.4151 35.3021 37.3937C35.4323 37.3723 35.5653 37.3769 35.6937 37.4072C35.822 37.4374 35.9431 37.4928 36.05 37.57C36.1566 37.6473 36.2469 37.7449 36.3157 37.8572C36.3844 37.9695 36.4304 38.0942 36.4508 38.2243C36.4713 38.3544 36.4658 38.4872 36.4348 38.6152C36.4037 38.7431 36.3477 38.8637 36.27 38.97C36.1769 39.0974 36.055 39.201 35.9142 39.2722C35.7734 39.3435 35.6178 39.3804 35.46 39.38C35.2516 39.3787 35.0488 39.3122 34.88 39.19ZM55.68 38.91C55.6023 38.8037 55.5463 38.6832 55.5152 38.5552C55.4842 38.4272 55.4787 38.2944 55.4992 38.1643C55.5196 38.0342 55.5656 37.9095 55.6343 37.7972C55.7031 37.6849 55.7934 37.5873 55.9 37.51V37.51C56.0063 37.4322 56.1269 37.3763 56.2548 37.3452C56.3828 37.3142 56.5156 37.3087 56.6457 37.3292C56.7758 37.3496 56.9005 37.3956 57.0128 37.4643C57.1251 37.5331 57.2227 37.6234 57.3 37.73V37.73C57.3777 37.8363 57.4337 37.9568 57.4648 38.0848C57.4958 38.2128 57.5013 38.3456 57.4808 38.4757C57.4604 38.6058 57.4144 38.7305 57.3457 38.8428C57.2769 38.9551 57.1866 39.0527 57.08 39.13V39.13C56.9084 39.2542 56.7018 39.3208 56.49 39.32C56.3322 39.3204 56.1766 39.2835 56.0358 39.2122C55.895 39.141 55.7731 39.0374 55.68 38.91V38.91ZM37.52 36.09C37.4423 35.9837 37.3863 35.8632 37.3552 35.7352C37.3242 35.6072 37.3187 35.4744 37.3392 35.3443C37.3596 35.2142 37.4056 35.0895 37.4743 34.9772C37.5431 34.8649 37.6334 34.7673 37.74 34.69V34.69C37.8463 34.6122 37.9669 34.5563 38.0948 34.5252C38.2228 34.4942 38.3556 34.4887 38.4857 34.5092C38.6158 34.5296 38.7405 34.5756 38.8528 34.6443C38.9651 34.7131 39.0627 34.8034 39.14 34.91V34.91C39.2177 35.0163 39.2737 35.1368 39.3048 35.2648C39.3358 35.3928 39.3413 35.5256 39.3208 35.6557C39.3004 35.7858 39.2544 35.9105 39.1857 36.0228C39.1169 36.1351 39.0266 36.2327 38.92 36.31V36.31C38.7484 36.4342 38.5418 36.5008 38.33 36.5C38.1722 36.5004 38.0166 36.4635 37.8758 36.3922C37.735 36.321 37.6131 36.2174 37.52 36.09V36.09ZM53.02 36.27C52.9126 36.1935 52.8215 36.0964 52.7517 35.9845C52.682 35.8726 52.6351 35.748 52.6137 35.6179C52.5924 35.4877 52.5969 35.3547 52.6272 35.2263C52.6574 35.098 52.7128 34.9769 52.79 34.87V34.87C52.8673 34.7634 52.9649 34.6731 53.0772 34.6043C53.1895 34.5356 53.3142 34.4896 53.4443 34.4692C53.5744 34.4487 53.7072 34.4542 53.8352 34.4852C53.9631 34.5163 54.0837 34.5723 54.19 34.65C54.3929 34.8035 54.5296 35.0286 54.5723 35.2795C54.6151 35.5303 54.5606 35.7879 54.42 36V36C54.327 36.1306 54.204 36.237 54.0612 36.3101C53.9185 36.3832 53.7603 36.4209 53.6 36.42C53.3892 36.4347 53.1791 36.3821 53 36.27H53.02ZM41 34C40.918 33.748 40.9393 33.4738 41.0593 33.2376C41.1793 33.0013 41.3882 32.8224 41.64 32.74V32.74C41.892 32.658 42.1662 32.6793 42.4024 32.7993C42.6387 32.9193 42.8176 33.1282 42.9 33.38V33.38C42.982 33.632 42.9607 33.9062 42.8407 34.1424C42.7207 34.3787 42.5118 34.5576 42.26 34.64C42.1576 34.6592 42.0524 34.6592 41.95 34.64C41.7452 34.6435 41.5442 34.584 41.3743 34.4695C41.2044 34.355 41.0737 34.1911 41 34V34ZM49.67 34.62C49.5368 34.5829 49.4127 34.5187 49.3056 34.4312C49.1985 34.3438 49.1107 34.235 49.0477 34.1119C48.9847 33.9888 48.948 33.854 48.9398 33.716C48.9316 33.5779 48.9521 33.4397 49 33.31C49.0824 33.0582 49.2613 32.8493 49.4976 32.7293C49.7338 32.6093 50.008 32.588 50.26 32.67C50.5118 32.7524 50.7207 32.9313 50.8407 33.1676C50.9607 33.4038 50.982 33.678 50.9 33.93C50.8322 34.1388 50.6975 34.3196 50.5168 34.4443C50.3361 34.569 50.1193 34.6307 49.9 34.62V34.62C49.8218 34.6115 49.7447 34.5947 49.67 34.57V34.62ZM45 33C45 32.7348 45.1054 32.4804 45.2929 32.2929C45.4804 32.1054 45.7348 32 46 32V32C46.2652 32 46.5196 32.1054 46.7071 32.2929C46.8946 32.4804 47 32.7348 47 33C47 33.2652 46.8946 33.5196 46.7071 33.7071C46.5196 33.8946 46.2652 34 46 34C45.7348 34 45.4804 33.8946 45.2929 33.7071C45.1054 33.5196 45 33.2652 45 33Z" fill="#F96045"></path> <path d="M46.0698 52.0799C46.0468 51.9506 46.0495 51.8179 46.0777 51.6896C46.106 51.5613 46.1592 51.4398 46.2345 51.3321C46.3097 51.2243 46.4054 51.1325 46.5161 51.0618C46.6269 50.9911 46.7505 50.9429 46.8798 50.9199C47.0092 50.8969 47.1418 50.8996 47.2702 50.9278C47.3985 50.9561 47.52 51.0093 47.6277 51.0845C47.7354 51.1598 47.8273 51.2555 47.898 51.3662C47.9687 51.477 48.0169 51.6006 48.0398 51.7299C48.0629 51.8593 48.0602 51.9919 48.032 52.1202C48.0037 52.2486 47.9505 52.3701 47.8752 52.4778C47.8 52.5855 47.7043 52.6774 47.5935 52.7481C47.4828 52.8188 47.3592 52.867 47.2298 52.8899H47.0598C46.8262 52.8918 46.5992 52.8119 46.4184 52.6639C46.2376 52.516 46.1142 52.3093 46.0698 52.0799ZM42.5198 52.0799C42.4053 52.0146 42.3047 51.9272 42.224 51.8229C42.1434 51.7185 42.0841 51.5993 42.0497 51.4719C42.0153 51.3446 42.0065 51.2117 42.0237 51.0809C42.0408 50.9501 42.0837 50.8241 42.1498 50.7099C42.2152 50.5953 42.3025 50.4948 42.4069 50.4141C42.5112 50.3334 42.6305 50.2742 42.7578 50.2398C42.8852 50.2054 43.0181 50.1966 43.1488 50.2137C43.2796 50.2309 43.4057 50.2738 43.5198 50.3399C43.6344 50.4053 43.735 50.4926 43.8156 50.597C43.8963 50.7013 43.9556 50.8206 43.99 50.9479C44.0244 51.0753 44.0332 51.2082 44.016 51.3389C43.9988 51.4697 43.956 51.5958 43.8898 51.7099C43.8017 51.8625 43.6749 51.9891 43.5221 52.077C43.3693 52.1648 43.1961 52.2106 43.0198 52.2099V52.2099C42.8447 52.2111 42.6722 52.1663 42.5198 52.0799ZM39.4298 48.4299C39.3351 48.1832 39.3419 47.9091 39.4487 47.6673C39.5555 47.4256 39.7537 47.236 39.9998 47.1399C40.1232 47.0935 40.2546 47.072 40.3864 47.0766C40.5181 47.0812 40.6477 47.1118 40.7676 47.1666C40.8875 47.2214 40.9953 47.2994 41.085 47.3961C41.1746 47.4928 41.2442 47.6062 41.2898 47.7299C41.3784 47.9742 41.3685 48.2433 41.2621 48.4804C41.1557 48.7174 40.9612 48.9038 40.7198 48.9999V48.9999C40.6071 49.0384 40.489 49.0587 40.3698 49.0599C40.1679 49.0621 39.97 49.0031 39.8022 48.8907C39.6344 48.7782 39.5046 48.6176 39.4298 48.4299V48.4299ZM39.9998 44.9199C39.753 44.8296 39.5516 44.6457 39.4393 44.408C39.327 44.1703 39.3129 43.898 39.3998 43.6499V43.6499C39.4394 43.522 39.5043 43.4034 39.5906 43.301C39.677 43.1987 39.7829 43.1147 39.9023 43.0541C40.0217 42.9935 40.152 42.9575 40.2856 42.9481C40.4191 42.9388 40.5532 42.9564 40.6798 42.9999C40.8041 43.0436 40.9186 43.1115 41.0166 43.1995C41.1146 43.2876 41.1942 43.3942 41.2509 43.5131C41.3076 43.6321 41.3402 43.7611 41.3469 43.8926C41.3536 44.0242 41.3342 44.1559 41.2898 44.2799C41.22 44.4732 41.0922 44.6402 40.924 44.7583C40.7559 44.8764 40.5554 44.9398 40.3498 44.9399C40.2329 44.9539 40.1144 44.9472 39.9998 44.9199ZM42.0898 41.3299C41.9679 41.1044 41.9372 40.8406 42.0042 40.593C42.0712 40.3455 42.2308 40.1332 42.4498 39.9999V39.9999C42.5634 39.9334 42.6889 39.8899 42.8193 39.872C42.9497 39.8541 43.0823 39.8621 43.2096 39.8955C43.3368 39.929 43.4563 39.9872 43.561 40.0669C43.6657 40.1466 43.7537 40.2462 43.8198 40.3599C43.9551 40.588 43.9942 40.8605 43.9285 41.1174C43.8629 41.3743 43.6979 41.5946 43.4698 41.7299C43.3144 41.8189 43.1389 41.8671 42.9598 41.8699V41.8699C42.7813 41.8649 42.6074 41.8122 42.4562 41.7172C42.305 41.6223 42.1819 41.4885 42.0998 41.3299H42.0898ZM46.8098 41.0699C46.5506 41.0235 46.3201 40.8767 46.1685 40.6614C46.0168 40.4461 45.9562 40.1797 45.9998 39.9199C46.0205 39.7898 46.0667 39.665 46.1357 39.5527C46.2048 39.4404 46.2954 39.3429 46.4023 39.2658C46.5091 39.1887 46.6302 39.1334 46.7585 39.1032C46.8868 39.073 47.0198 39.0685 47.1498 39.0899V39.0899C47.2828 39.1081 47.4107 39.1529 47.526 39.2216C47.6413 39.2902 47.7416 39.3814 47.8209 39.4896C47.9002 39.5979 47.9569 39.721 47.9877 39.8516C48.0184 39.9822 48.0226 40.1177 47.9998 40.2499V40.2499C47.9594 40.4847 47.8364 40.6973 47.653 40.8495C47.4697 41.0017 47.2381 41.0834 46.9998 41.0799H46.8298L46.8098 41.0699Z" fill="#F96045"></path> </svg> 