<?xml version="1.0" encoding="UTF-8"?> <svg xmlns="http://www.w3.org/2000/svg" width="228" height="38" viewBox="0 0 228 38" fill="none"> <g filter="url(#filter0_d_921_25)"> <path d="M222 2H6C4.89543 2 4 2.89543 4 4V30C4 31.1046 4.89543 32 6 32H222C223.105 32 224 31.1046 224 30V4C224 2.89543 223.105 2 222 2Z" fill="#212225"></path> </g> <path d="M50.5116 22.1954C48.9316 22.1954 47.6216 21.6754 46.5816 20.6354C45.5416 19.5854 45.0216 18.2904 45.0216 16.7504C45.0216 15.2104 45.5416 13.9204 46.5816 12.8804C47.6216 11.8304 48.9316 11.3054 50.5116 11.3054C51.4616 11.3054 52.3366 11.5304 53.1366 11.9804C53.9466 12.4304 54.5766 13.0404 55.0266 13.8104L53.5266 14.6804C53.2466 14.1604 52.8366 13.7504 52.2966 13.4504C51.7666 13.1404 51.1716 12.9854 50.5116 12.9854C49.3916 12.9854 48.4816 13.3404 47.7816 14.0504C47.0916 14.7604 46.7466 15.6604 46.7466 16.7504C46.7466 17.8404 47.0916 18.7404 47.7816 19.4504C48.4816 20.1604 49.3916 20.5154 50.5116 20.5154C51.1716 20.5154 51.7716 20.3654 52.3116 20.0654C52.8516 19.7554 53.2566 19.3404 53.5266 18.8204L55.0266 19.6754C54.5866 20.4454 53.9616 21.0604 53.1516 21.5204C52.3516 21.9704 51.4716 22.1954 50.5116 22.1954Z" fill="white"></path> <path d="M62.28 14.5004H63.9V22.0004H62.28V20.9204C61.67 21.7704 60.795 22.1954 59.655 22.1954C58.625 22.1954 57.745 21.8154 57.015 21.0554C56.285 20.2854 55.92 19.3504 55.92 18.2504C55.92 17.1404 56.285 16.2054 57.015 15.4454C57.745 14.6854 58.625 14.3054 59.655 14.3054C60.795 14.3054 61.67 14.7254 62.28 15.5654V14.5004ZM58.215 19.9754C58.665 20.4254 59.23 20.6504 59.91 20.6504C60.59 20.6504 61.155 20.4254 61.605 19.9754C62.055 19.5154 62.28 18.9404 62.28 18.2504C62.28 17.5604 62.055 16.9904 61.605 16.5404C61.155 16.0804 60.59 15.8504 59.91 15.8504C59.23 15.8504 58.665 16.0804 58.215 16.5404C57.765 16.9904 57.54 17.5604 57.54 18.2504C57.54 18.9404 57.765 19.5154 58.215 19.9754Z" fill="white"></path> <path d="M67.0183 13.4505V12.0405H71.2183V13.4505H67.0183ZM71.2183 14.5005H72.4633V22.0005H70.8733V17.2305L67.0333 22.0005H65.7883V14.5005H67.3783V19.2555L71.2183 14.5005Z" fill="white"></path> <path d="M80.073 14.5005V16.0605H77.628V22.0005H76.008V16.0605H73.548V14.5005H80.073Z" fill="white"></path> <path d="M89.1641 14.3054C90.1941 14.3054 91.0741 14.6904 91.8041 15.4604C92.5341 16.2204 92.8991 17.1504 92.8991 18.2504C92.8991 19.3604 92.5341 20.2954 91.8041 21.0554C91.0741 21.8154 90.1941 22.1954 89.1641 22.1954C88.0241 22.1954 87.1491 21.7754 86.5391 20.9354V25.0004H84.9191V14.5004H86.5391V15.5804C87.1491 14.7304 88.0241 14.3054 89.1641 14.3054ZM87.2141 19.9754C87.6641 20.4254 88.2291 20.6504 88.9091 20.6504C89.5891 20.6504 90.1541 20.4254 90.6041 19.9754C91.0541 19.5154 91.2791 18.9404 91.2791 18.2504C91.2791 17.5604 91.0541 16.9904 90.6041 16.5404C90.1541 16.0804 89.5891 15.8504 88.9091 15.8504C88.2291 15.8504 87.6641 16.0804 87.2141 16.5404C86.7641 16.9904 86.5391 17.5604 86.5391 18.2504C86.5391 18.9404 86.7641 19.5154 87.2141 19.9754Z" fill="white"></path> <path d="M100.307 14.5004H101.927V22.0004H100.307V20.9204C99.6974 21.7704 98.8224 22.1954 97.6824 22.1954C96.6524 22.1954 95.7724 21.8154 95.0424 21.0554C94.3124 20.2854 93.9474 19.3504 93.9474 18.2504C93.9474 17.1404 94.3124 16.2054 95.0424 15.4454C95.7724 14.6854 96.6524 14.3054 97.6824 14.3054C98.8224 14.3054 99.6974 14.7254 100.307 15.5654V14.5004ZM96.2424 19.9754C96.6924 20.4254 97.2574 20.6504 97.9374 20.6504C98.6174 20.6504 99.1824 20.4254 99.6324 19.9754C100.082 19.5154 100.307 18.9404 100.307 18.2504C100.307 17.5604 100.082 16.9904 99.6324 16.5404C99.1824 16.0804 98.6174 15.8504 97.9374 15.8504C97.2574 15.8504 96.6924 16.0804 96.2424 16.5404C95.7924 16.9904 95.5674 17.5604 95.5674 18.2504C95.5674 18.9404 95.7924 19.5154 96.2424 19.9754Z" fill="white"></path> <path d="M108.031 18.1604C108.831 18.5204 109.231 19.1154 109.231 19.9454C109.231 20.5854 108.971 21.1204 108.451 21.5504C107.931 21.9804 107.206 22.1954 106.276 22.1954C104.766 22.1954 103.746 21.5954 103.216 20.3954L104.536 19.6154C104.806 20.3654 105.391 20.7404 106.291 20.7404C106.711 20.7404 107.041 20.6554 107.281 20.4854C107.521 20.3054 107.641 20.0704 107.641 19.7804C107.641 19.5204 107.546 19.3154 107.356 19.1654C107.166 19.0054 106.901 18.9254 106.561 18.9254H105.496V17.5004H106.291C106.621 17.5004 106.876 17.4254 107.056 17.2754C107.246 17.1154 107.341 16.9004 107.341 16.6304C107.341 16.3704 107.236 16.1604 107.026 16.0004C106.816 15.8304 106.536 15.7454 106.186 15.7454C105.436 15.7454 104.916 16.0754 104.626 16.7354L103.306 15.9854C103.866 14.8654 104.816 14.3054 106.156 14.3054C106.996 14.3054 107.661 14.5204 108.151 14.9504C108.651 15.3704 108.901 15.8854 108.901 16.4954C108.901 17.2454 108.611 17.8004 108.031 18.1604Z" fill="white"></path> <path d="M114.799 14.3054C115.829 14.3054 116.709 14.6904 117.439 15.4604C118.169 16.2204 118.534 17.1504 118.534 18.2504C118.534 19.3604 118.169 20.2954 117.439 21.0554C116.709 21.8154 115.829 22.1954 114.799 22.1954C113.659 22.1954 112.784 21.7754 112.174 20.9354V25.0004H110.554V14.5004H112.174V15.5804C112.784 14.7304 113.659 14.3054 114.799 14.3054ZM112.849 19.9754C113.299 20.4254 113.864 20.6504 114.544 20.6504C115.224 20.6504 115.789 20.4254 116.239 19.9754C116.689 19.5154 116.914 18.9404 116.914 18.2504C116.914 17.5604 116.689 16.9904 116.239 16.5404C115.789 16.0804 115.224 15.8504 114.544 15.8504C113.864 15.8504 113.299 16.0804 112.849 16.5404C112.399 16.9904 112.174 17.5604 112.174 18.2504C112.174 18.9404 112.399 19.5154 112.849 19.9754Z" fill="white"></path> <path d="M125.942 14.5004H127.562V22.0004H125.942V20.9204C125.332 21.7704 124.457 22.1954 123.317 22.1954C122.287 22.1954 121.407 21.8154 120.677 21.0554C119.947 20.2854 119.582 19.3504 119.582 18.2504C119.582 17.1404 119.947 16.2054 120.677 15.4454C121.407 14.6854 122.287 14.3054 123.317 14.3054C124.457 14.3054 125.332 14.7254 125.942 15.5654V14.5004ZM121.877 19.9754C122.327 20.4254 122.892 20.6504 123.572 20.6504C124.252 20.6504 124.817 20.4254 125.267 19.9754C125.717 19.5154 125.942 18.9404 125.942 18.2504C125.942 17.5604 125.717 16.9904 125.267 16.5404C124.817 16.0804 124.252 15.8504 123.572 15.8504C122.892 15.8504 122.327 16.0804 121.877 16.5404C121.427 16.9904 121.202 17.5604 121.202 18.2504C121.202 18.9404 121.427 19.5154 121.877 19.9754Z" fill="white"></path> <path d="M132.93 22.1955C131.78 22.1955 130.84 21.8255 130.11 21.0855C129.39 20.3355 129.03 19.3805 129.03 18.2205C129.03 16.9505 129.22 15.9705 129.6 15.2805C129.98 14.5805 130.75 13.9455 131.91 13.3755C132.1 13.2855 132.38 13.1555 132.75 12.9855C133.13 12.8155 133.39 12.6955 133.53 12.6255C133.67 12.5455 133.845 12.4355 134.055 12.2955C134.265 12.1455 134.42 11.9905 134.52 11.8305C134.62 11.6605 134.7 11.4605 134.76 11.2305L136.08 11.9955C136.04 12.2155 135.975 12.4205 135.885 12.6105C135.795 12.7905 135.665 12.9605 135.495 13.1205C135.325 13.2805 135.175 13.4105 135.045 13.5105C134.925 13.6105 134.72 13.7305 134.43 13.8705C134.14 14.0105 133.925 14.1105 133.785 14.1705C133.655 14.2305 133.405 14.3355 133.035 14.4855C132.375 14.7455 131.89 15.0155 131.58 15.2955C131.28 15.5655 131.07 15.9055 130.95 16.3155C131.55 15.6355 132.365 15.2955 133.395 15.2955C134.275 15.2955 135.04 15.6105 135.69 16.2405C136.35 16.8705 136.68 17.6855 136.68 18.6855C136.68 19.7055 136.33 20.5455 135.63 21.2055C134.94 21.8655 134.04 22.1955 132.93 22.1955ZM132.915 20.6805C133.545 20.6805 134.06 20.4955 134.46 20.1255C134.86 19.7455 135.06 19.2655 135.06 18.6855C135.06 18.0955 134.86 17.6105 134.46 17.2305C134.07 16.8505 133.56 16.6605 132.93 16.6605C132.37 16.6605 131.865 16.8405 131.415 17.2005C130.965 17.5505 130.74 18.0205 130.74 18.6105C130.74 19.2105 130.95 19.7055 131.37 20.0955C131.79 20.4855 132.305 20.6805 132.915 20.6805Z" fill="white"></path> <path d="M141.501 22.1954C140.401 22.1954 139.466 21.8154 138.696 21.0554C137.926 20.2954 137.541 19.3604 137.541 18.2504C137.541 17.1404 137.926 16.2054 138.696 15.4454C139.466 14.6854 140.401 14.3054 141.501 14.3054C142.611 14.3054 143.546 14.6854 144.306 15.4454C145.076 16.2054 145.461 17.1404 145.461 18.2504C145.461 19.3604 145.076 20.2954 144.306 21.0554C143.546 21.8154 142.611 22.1954 141.501 22.1954ZM139.836 19.9454C140.286 20.3954 140.841 20.6204 141.501 20.6204C142.161 20.6204 142.716 20.3954 143.166 19.9454C143.616 19.4954 143.841 18.9304 143.841 18.2504C143.841 17.5704 143.616 17.0054 143.166 16.5554C142.716 16.1054 142.161 15.8804 141.501 15.8804C140.841 15.8804 140.286 16.1054 139.836 16.5554C139.386 17.0054 139.161 17.5704 139.161 18.2504C139.161 18.9304 139.386 19.4954 139.836 19.9454Z" fill="white"></path> <path d="M152.363 14.5005V16.0605H149.918V22.0005H148.298V16.0605H145.838V14.5005H152.363Z" fill="white"></path> <path d="M159.106 14.5004H160.726V22.0004H159.106V20.9204C158.496 21.7704 157.621 22.1954 156.481 22.1954C155.451 22.1954 154.571 21.8154 153.841 21.0554C153.111 20.2854 152.746 19.3504 152.746 18.2504C152.746 17.1404 153.111 16.2054 153.841 15.4454C154.571 14.6854 155.451 14.3054 156.481 14.3054C157.621 14.3054 158.496 14.7254 159.106 15.5654V14.5004ZM155.041 19.9754C155.491 20.4254 156.056 20.6504 156.736 20.6504C157.416 20.6504 157.981 20.4254 158.431 19.9754C158.881 19.5154 159.106 18.9404 159.106 18.2504C159.106 17.5604 158.881 16.9904 158.431 16.5404C157.981 16.0804 157.416 15.8504 156.736 15.8504C156.056 15.8504 155.491 16.0804 155.041 16.5404C154.591 16.9904 154.366 17.5604 154.366 18.2504C154.366 18.9404 154.591 19.5154 155.041 19.9754Z" fill="white"></path> <path d="M167.669 14.5005H169.289V22.0005H167.669V19.0155H164.234V22.0005H162.614V14.5005H164.234V17.4855H167.669V14.5005Z" fill="white"></path> <path d="M184.459 22.0005L182.344 18.3555H180.769V22.0005H178.699V11.5005H182.899C183.869 11.5005 184.694 11.8405 185.374 12.5205C186.054 13.2005 186.394 14.0205 186.394 14.9805C186.394 15.6305 186.209 16.2355 185.839 16.7955C185.469 17.3455 184.979 17.7605 184.369 18.0405L186.694 22.0005H184.459ZM180.769 13.4355V16.5405H182.899C183.289 16.5405 183.624 16.3905 183.904 16.0905C184.184 15.7805 184.324 15.4105 184.324 14.9805C184.324 14.5505 184.184 14.1855 183.904 13.8855C183.624 13.5855 183.289 13.4355 182.899 13.4355H180.769Z" fill="white"></path> <path d="M194.663 22.0005L194.033 20.1105H189.848L189.218 22.0005H186.983L190.658 11.5005H193.223L196.913 22.0005H194.663ZM190.508 18.1755H193.388L191.948 13.8855L190.508 18.1755Z" fill="white"></path> <path d="M204.203 13.4805H200.003V15.9705H204.083V17.9505H200.003V22.0005H197.933V11.5005H204.203V13.4805Z" fill="white"></path> <path d="M212.656 11.5005V13.4805H209.821V22.0005H207.751V13.4805H204.931V11.5005H212.656Z" fill="white"></path> <path d="M177.724 25.0005H212.836V25.7505H177.724V25.0005Z" fill="white"></path> <path d="M15 26.9909V20.6636V14.336L21.3133 8.01074H27.519L15 20.6636H21.3153L27.5211 14.336H33.8364L27.5211 20.6636H21.3153L15 26.9909Z" fill="#CF242A"></path> <defs> <filter id="filter0_d_921_25" x="0" y="0" width="228" height="38" filterUnits="userSpaceOnUse" color-interpolation-filters="sRGB"> <feFlood flood-opacity="0" result="BackgroundImageFix"></feFlood> <feColorMatrix in="SourceAlpha" type="matrix" values="0 0 0 0 0 0 0 0 0 0 0 0 0 0 0 0 0 0 127 0" result="hardAlpha"></feColorMatrix> <feOffset dy="2"></feOffset> <feGaussianBlur stdDeviation="2"></feGaussianBlur> <feColorMatrix type="matrix" values="0 0 0 0 0.0146701 0 0 0 0 0.100058 0 0 0 0 0.270833 0 0 0 0.1 0"></feColorMatrix> <feBlend mode="normal" in2="BackgroundImageFix" result="effect1_dropShadow_921_25"></feBlend> <feBlend mode="normal" in="SourceGraphic" in2="effect1_dropShadow_921_25" result="shape"></feBlend> </filter> </defs> </svg> 