<?xml version="1.0" encoding="UTF-8"?> <svg xmlns="http://www.w3.org/2000/svg" width="76" height="76" viewBox="0 0 76 76" fill="none"> <path d="M39.5932 62.5372L40.5297 64.3044L40.5297 64.3044L39.5932 62.5372ZM36.4061 62.5372L35.4696 64.3044L36.4061 62.5372ZM58.1663 34.8327C58.1663 41.8887 54.6528 47.6689 50.3498 52.106C46.0465 56.5433 41.1063 59.4719 38.6567 60.77L40.5297 64.3044C43.1621 62.9095 48.5085 59.7502 53.2213 54.8907C57.9343 50.0309 62.1663 43.3054 62.1663 34.8327H58.1663ZM37.9997 14.666C49.1374 14.666 58.1663 23.6949 58.1663 34.8327H62.1663C62.1663 21.4858 51.3466 10.666 37.9997 10.666V14.666ZM17.833 34.8327C17.833 23.6949 26.8619 14.666 37.9997 14.666V10.666C24.6528 10.666 13.833 21.4858 13.833 34.8327H17.833ZM37.3426 60.77C34.893 59.4719 29.9529 56.5433 25.6495 52.106C21.3465 47.6689 17.833 41.8887 17.833 34.8327H13.833C13.833 43.3054 18.0651 50.0309 22.7781 54.8907C27.4908 59.7502 32.8372 62.9095 35.4696 64.3044L37.3426 60.77ZM38.6567 60.77C38.2357 60.9932 37.7636 60.9932 37.3426 60.77L35.4696 64.3044C37.0622 65.1484 38.9372 65.1484 40.5297 64.3044L38.6567 60.77ZM45.4997 34.8327C45.4997 38.9748 42.1418 42.3327 37.9997 42.3327V46.3327C44.3509 46.3327 49.4997 41.184 49.4997 34.8327H45.4997ZM37.9997 27.3327C42.1418 27.3327 45.4997 30.6905 45.4997 34.8327H49.4997C49.4997 28.4814 44.3509 23.3327 37.9997 23.3327V27.3327ZM30.4997 34.8327C30.4997 30.6905 33.8575 27.3327 37.9997 27.3327V23.3327C31.6484 23.3327 26.4997 28.4814 26.4997 34.8327H30.4997ZM37.9997 42.3327C33.8575 42.3327 30.4997 38.9748 30.4997 34.8327H26.4997C26.4997 41.184 31.6484 46.3327 37.9997 46.3327V42.3327Z" fill="#393939"></path> </svg> 