<?xml version="1.0" encoding="UTF-8"?> <svg xmlns="http://www.w3.org/2000/svg" width="165" height="56" viewBox="0 0 165 56" fill="none"> <path d="M5.94891 0.0390118C4.86096 -0.178578 3.80262 0.526987 3.58503 1.61494L0.0391955 19.3441C-0.178394 20.432 0.527171 21.4904 1.61512 21.708C2.70307 21.9256 3.76142 21.22 3.97901 20.132L7.13086 4.3728L22.8901 7.52465C23.978 7.74224 25.0364 7.03668 25.254 5.94873C25.4716 4.86078 24.766 3.80243 23.6781 3.58484L5.94891 0.0390118ZM3.88341 3.12326C16.0457 21.3666 32.7174 40.0474 58.3026 49.3978C83.9105 58.7565 118.088 58.6401 165 40.0369L163.519 36.302C117.217 54.6629 84.0958 54.5464 59.6817 45.624C35.2448 36.6933 19.1712 18.8117 7.22645 0.894571L3.88341 3.12326Z" fill="#A5A5A5"></path> </svg> 