<?xml version="1.0" encoding="UTF-8"?> <svg xmlns="http://www.w3.org/2000/svg" width="151" height="307" viewBox="0 0 151 307" fill="none"> <path d="M48.0538 131.031C48.0448 133.116 47.2903 135.112 45.9551 136.583C44.6199 138.054 42.8128 138.88 40.929 138.88H25.7002C26.2776 153.028 31.7613 166.384 41.01 176.169C50.2587 185.955 62.5601 191.416 75.3542 191.416C88.1484 191.416 100.45 185.955 109.698 176.169C118.947 166.384 124.431 153.028 125.008 138.88H109.779C108.805 138.954 107.827 138.806 106.906 138.444C105.985 138.083 105.142 137.515 104.428 136.777C103.714 136.039 103.144 135.147 102.755 134.155C102.365 133.163 102.164 132.093 102.164 131.012C102.164 129.931 102.365 128.861 102.755 127.869C103.144 126.877 103.714 125.985 104.428 125.247C105.142 124.509 105.985 123.941 106.906 123.58C107.827 123.218 108.805 123.07 109.779 123.144H124.941V106.549H109.779C107.89 106.549 106.078 105.718 104.741 104.239C103.405 102.76 102.655 100.754 102.655 98.6619C102.655 96.5703 103.405 94.5643 104.741 93.0853C106.078 91.6062 107.89 90.7753 109.779 90.7753H124.941V74.2172H109.779C107.89 74.2172 106.078 73.3863 104.741 71.9073C103.405 70.4282 102.655 68.4222 102.655 66.3306C102.655 64.2389 103.405 62.2329 104.741 60.7539C106.078 59.2749 107.89 58.444 109.779 58.444H124.941V53.6223C124.603 39.2736 119.216 25.6383 109.928 15.6219C100.641 5.60545 88.1862 0 75.2192 0C62.2521 0 49.7977 5.60545 40.5099 15.6219C31.2221 25.6383 25.8354 39.2736 25.4976 53.6223V58.4066H40.7939C42.6835 58.4066 44.4957 59.2375 45.8319 60.7165C47.1681 62.1956 47.9187 64.2016 47.9187 66.2932C47.9187 68.3849 47.1681 70.3909 45.8319 71.8699C44.4957 73.3489 42.6835 74.1798 40.7939 74.1798H25.6326V90.7379H40.929C41.8646 90.7379 42.7911 90.9419 43.6555 91.3383C44.5199 91.7346 45.3054 92.3155 45.967 93.0479C46.6286 93.7802 47.1534 94.6496 47.5114 95.6065C47.8695 96.5633 48.0538 97.5889 48.0538 98.6245C48.0538 99.6602 47.8695 100.686 47.5114 101.643C47.1534 102.599 46.6286 103.469 45.967 104.201C45.3054 104.934 44.5199 105.514 43.6555 105.911C42.7911 106.307 41.8646 106.511 40.929 106.511H25.6326V123.107H40.929C41.8675 123.107 42.7967 123.312 43.6633 123.711C44.53 124.109 45.3169 124.693 45.9789 125.43C46.641 126.166 47.1651 127.04 47.5212 128.001C47.8772 128.962 48.0582 129.992 48.0538 131.031Z" fill="#F9F9F9"></path> <path d="M143.576 90.7783C141.689 90.7881 139.882 91.6222 138.548 93.0991C137.214 94.576 136.46 96.5763 136.452 98.6649V132.006C136.452 171.027 109.033 202.798 75.3337 202.798C41.6344 202.798 14.2496 171.027 14.2496 132.006V98.6649C14.2496 96.5733 13.4989 94.5673 12.1628 93.0883C10.8266 91.6092 9.0144 90.7783 7.12479 90.7783C5.23518 90.7783 3.42296 91.6092 2.0868 93.0883C0.750646 94.5673 0 96.5733 0 98.6649L0 132.006C0 176.858 30.0187 214.011 68.2427 218.16V290.784H41.6344C39.7448 290.784 37.9326 291.615 36.5965 293.094C35.2603 294.573 34.5097 296.579 34.5097 298.671C34.5097 300.763 35.2603 302.769 36.5965 304.248C37.9326 305.727 39.7448 306.558 41.6344 306.558H109.168C111.058 306.558 112.87 305.727 114.206 304.248C115.542 302.769 116.293 300.763 116.293 298.671C116.293 296.579 115.542 294.573 114.206 293.094C112.87 291.615 111.058 290.784 109.168 290.784H82.4585V218.16C120.682 214.011 150.701 177.045 150.701 132.006V98.6649C150.692 96.5763 149.939 94.576 148.605 93.0991C147.27 91.6222 145.463 90.7881 143.576 90.7783Z" fill="#F9F9F9"></path> </svg> 