<?xml version="1.0" encoding="UTF-8"?> <svg xmlns="http://www.w3.org/2000/svg" width="15" height="15" viewBox="0 0 15 15" fill="none"> <path d="M7.5 10C8.16304 10 8.79893 9.73661 9.26777 9.26777C9.73661 8.79893 10 8.16304 10 7.5C10 6.83696 9.73661 6.20107 9.26777 5.73223C8.79893 5.26339 8.16304 5 7.5 5C6.83696 5 6.20107 5.26339 5.73223 5.73223C5.26339 6.20107 5 6.83696 5 7.5C5 8.16304 5.26339 8.79893 5.73223 9.26777C6.20107 9.73661 6.83696 10 7.5 10V10Z" stroke="white" stroke-linecap="round" stroke-linejoin="round"></path> <path d="M1.875 10V5C1.875 4.1712 2.20424 3.37634 2.79029 2.79029C3.37634 2.20424 4.1712 1.875 5 1.875H10C10.8288 1.875 11.6237 2.20424 12.2097 2.79029C12.7958 3.37634 13.125 4.1712 13.125 5V10C13.125 10.8288 12.7958 11.6237 12.2097 12.2097C11.6237 12.7958 10.8288 13.125 10 13.125H5C4.1712 13.125 3.37634 12.7958 2.79029 12.2097C2.20424 11.6237 1.875 10.8288 1.875 10Z" stroke="white"></path> <path d="M10.9375 4.06843L10.9433 4.06201" stroke="white" stroke-width="1.5" stroke-linecap="round" stroke-linejoin="round"></path> </svg> 