<?xml version="1.0" encoding="UTF-8"?> <svg xmlns="http://www.w3.org/2000/svg" width="72" height="72" viewBox="0 0 72 72" fill="none"> <g clip-path="url(#clip0_135_120)"> <path fill-rule="evenodd" clip-rule="evenodd" d="M64.087 44.272C64.087 44.272 69.9082 50.0212 71.3482 52.6816C71.3763 52.7199 71.3981 52.7625 71.413 52.8076C71.9998 53.7904 72.1438 54.5608 71.8558 55.1296C71.3698 56.0692 69.7246 56.5408 69.1666 56.5804H58.8778C58.1614 56.5804 56.671 56.3932 54.8566 55.1404C53.4706 54.172 52.0918 52.5772 50.7562 51.0184C48.7618 48.7036 47.0374 46.6948 45.2914 46.6948C45.0709 46.6943 44.8519 46.7308 44.6434 46.8028C43.3222 47.2204 41.6446 49.1032 41.6446 54.118C41.6446 55.6876 40.4062 56.5804 39.5386 56.5804H34.8262C33.2206 56.5804 24.8614 56.0188 17.449 48.2032C8.36624 38.6344 0.208636 19.4392 0.129436 19.27C-0.378164 18.028 0.687436 17.3512 1.83944 17.3512H12.229C13.6222 17.3512 14.0758 18.1936 14.3926 18.9496C14.7598 19.8172 16.1206 23.2876 18.3526 27.1864C21.967 33.5296 24.1882 36.1108 25.963 36.1108C26.2965 36.1117 26.6243 36.0248 26.9134 35.8588C29.2318 34.5844 28.7998 26.3044 28.6918 24.598C28.6918 24.2668 28.6882 20.9008 27.5002 19.2736C26.6506 18.1072 25.2034 17.6536 24.3286 17.488C24.5626 17.1496 25.0594 16.6312 25.6966 16.3252C27.2842 15.5332 30.1534 15.418 33.001 15.418H34.5814C37.6702 15.4612 38.4694 15.6592 39.5926 15.9436C41.8534 16.4836 41.8966 17.9488 41.6986 22.9384C41.641 24.364 41.5798 25.9696 41.5798 27.8596C41.5798 28.2628 41.5618 28.7128 41.5618 29.17C41.4934 31.7296 41.4034 34.6132 43.2106 35.7976C43.445 35.9436 43.7157 36.0209 43.9918 36.0208C44.6182 36.0208 46.4938 36.0208 51.5806 27.2908C53.8126 23.4352 55.5406 18.8884 55.6594 18.5464C55.7602 18.3556 56.0626 17.8192 56.4298 17.6032C56.691 17.4642 56.9836 17.3948 57.2794 17.4016H69.5014C70.8334 17.4016 71.737 17.6032 71.9134 18.1072C72.2086 18.9244 71.8558 21.4192 66.2758 28.9648C65.3362 30.2212 64.5118 31.3084 63.7882 32.2588C58.7302 38.8972 58.7302 39.232 64.087 44.272Z" fill="white"></path> </g> <defs> <clipPath id="clip0_135_120"> <rect width="18" height="18" fill="white" transform="scale(4)"></rect> </clipPath> </defs> </svg> 