<?xml version="1.0" encoding="UTF-8"?> <svg xmlns="http://www.w3.org/2000/svg" width="48" height="48" viewBox="0 0 48 48" fill="none"> <path fill-rule="evenodd" clip-rule="evenodd" d="M46 37H2C1.447 37 1 36.553 1 36V8C1 7.448 1.447 7 2 7H46C46.553 7 47 7.448 47 8V36C47 36.553 46.553 37 46 37ZM45 9H3V35H45V9ZM21 16C21.214 16 21.4 16.082 21.563 16.196L29.334 21.068C29.72 21.205 30 21.566 30 22C30 22.325 29.835 22.601 29.595 22.783L21.621 27.764C21.449 27.904 21.238 28 21 28C20.447 28 20 27.553 20 27V17C20 16.448 20.447 16 21 16ZM15 39H33C33.553 39 34 39.447 34 40C34 40.553 33.553 41 33 41H15C14.447 41 14 40.553 14 40C14 39.447 14.447 39 15 39Z" fill="#4D4D4D"></path> </svg> 