<?xml version="1.0" encoding="UTF-8"?> <svg xmlns="http://www.w3.org/2000/svg" width="271" height="152" viewBox="0 0 271 152" fill="none"> <g clip-path="url(#clip0_0_10238)"> <path d="M168.464 152H46.3809C43.7687 152 41.2621 150.969 39.4068 149.13C37.5514 147.291 36.4972 144.793 36.4738 142.181V56.917C36.4738 55.6158 36.7301 54.3274 37.2279 53.1253C37.7258 51.9232 38.4556 50.8309 39.3755 49.9108C40.2955 48.9908 41.3876 48.2609 42.5896 47.763C43.7916 47.2651 45.0799 47.0088 46.3809 47.0088H168.464C169.763 47.0088 171.049 47.2654 172.249 47.7639C173.448 48.2623 174.537 48.9929 175.454 49.9135C176.37 50.8342 177.096 51.9268 177.589 53.1287C178.082 54.3305 178.333 55.6179 178.327 56.917V142.181C178.315 144.789 177.271 147.287 175.422 149.127C173.574 150.967 171.072 152 168.464 152ZM46.3809 51.4519C44.9316 51.4519 43.5417 52.0277 42.5169 53.0526C41.4922 54.0775 40.9164 55.4676 40.9164 56.917V142.181C40.9164 143.63 41.4922 145.02 42.5169 146.045C43.5417 147.07 44.9316 147.646 46.3809 147.646H168.464C169.906 147.634 171.284 147.053 172.299 146.03C173.315 145.006 173.884 143.623 173.884 142.181V56.917C173.884 55.4752 173.315 54.0919 172.299 53.0682C171.284 52.0446 169.906 51.4637 168.464 51.4519H46.3809Z" fill="#EEEEEE"></path> <path d="M232.349 35.1456H193.254C188.599 35.1378 184.132 33.3031 180.815 30.036C179.055 28.211 177.68 26.0502 176.772 23.6823C176.054 21.794 175.678 19.793 175.662 17.7729C175.651 15.7069 176.028 13.6573 176.772 11.7302C177.968 8.30936 180.195 5.34387 183.147 3.24287C186.1 1.14186 189.631 0.00890413 193.254 0.000296593H232.349C234.879 -0.382422 237.461 -0.214372 239.92 0.492959C242.379 1.20029 244.656 2.43022 246.595 4.09869C248.535 5.76715 250.092 7.83479 251.159 10.1603C252.226 12.4858 252.778 15.0143 252.778 17.5729C252.778 20.1316 252.226 22.6601 251.159 24.9856C250.092 27.3111 248.535 29.3787 246.595 31.0472C244.656 32.7156 242.379 33.9456 239.92 34.6529C237.461 35.3602 234.879 35.5283 232.349 35.1456ZM193.254 4.44344C190.533 4.45797 187.884 5.32216 185.678 6.91532C183.472 8.50847 181.818 10.751 180.948 13.3297C180.388 14.7439 180.101 16.2517 180.104 17.7729C180.097 19.2904 180.368 20.7964 180.904 22.216C181.593 24.0185 182.635 25.665 183.969 27.0591C186.455 29.4783 189.786 30.8331 193.254 30.8357H232.349C235.526 30.383 238.433 28.799 240.536 26.3749C242.639 23.9507 243.797 20.849 243.797 17.6396C243.797 14.4302 242.639 11.3285 240.536 8.90431C238.433 6.48012 235.526 4.89619 232.349 4.44344H193.254Z" fill="#EEEEEE"></path> <path d="M161.667 51.453H146.607L146.207 25.1051H139.721V51.453H124.704V25.1051H120.795C119.763 25.1847 118.727 25.0501 117.75 24.7099C116.772 24.3698 115.876 23.8313 115.117 23.1283C114.358 22.4253 113.752 21.573 113.338 20.6249C112.924 19.6767 112.71 18.6531 112.71 17.6184C112.71 16.5837 112.924 15.5601 113.338 14.612C113.752 13.6638 114.358 12.8115 115.117 12.1085C115.876 11.4055 116.772 10.8671 117.75 10.5269C118.727 10.1867 119.763 10.0522 120.795 10.1317H182.148L180.948 13.3308C180.388 14.7449 180.101 16.2527 180.104 17.7739C180.096 19.2914 180.367 20.7975 180.904 22.2171L182.103 25.2384H161.267L161.667 51.453ZM151.049 47.0098H157.136L156.78 20.662H175.928C175.572 18.6485 175.572 16.5883 175.928 14.5749H120.795C120.379 14.568 119.966 14.6471 119.582 14.8072C119.199 14.9673 118.852 15.205 118.564 15.5053C118.276 15.8056 118.054 16.1621 117.91 16.5525C117.767 16.9429 117.705 17.3587 117.73 17.7739C117.73 18.587 118.053 19.3668 118.627 19.9418C119.202 20.5167 119.982 20.8397 120.795 20.8397H129.147V47.1875H135.278V20.662H150.694L151.049 47.0098Z" fill="#EEEEEE"></path> <path d="M129.902 142.758H57.7541C54.8085 142.758 51.9835 141.588 49.9006 139.505C47.8177 137.422 46.6476 134.596 46.6476 131.65V67.758C46.6476 64.812 47.8177 61.9867 49.9006 59.9036C51.9835 57.8204 54.8085 56.6501 57.7541 56.6501H129.902C132.848 56.6501 135.673 57.8204 137.756 59.9036C139.839 61.9867 141.009 64.812 141.009 67.758V131.65C141.009 134.596 139.839 137.422 137.756 139.505C135.673 141.588 132.848 142.758 129.902 142.758ZM57.7541 61.0933C55.9867 61.0933 54.2917 61.7955 53.042 63.0453C51.7923 64.2952 51.0902 65.9904 51.0902 67.758V131.65C51.0902 133.418 51.7923 135.113 53.042 136.363C54.2917 137.613 55.9867 138.315 57.7541 138.315H129.902C131.67 138.315 133.365 137.613 134.614 136.363C135.864 135.113 136.566 133.418 136.566 131.65V67.758C136.566 65.9904 135.864 64.2952 134.614 63.0453C133.365 61.7955 131.67 61.0933 129.902 61.0933H57.7541Z" fill="#EEEEEE"></path> <path d="M111.999 90.5075H61.0861C60.4969 90.5075 59.9319 90.2734 59.5154 89.8568C59.0988 89.4402 58.8647 88.8751 58.8647 88.2859V72.9126C58.8647 72.3234 59.0988 71.7583 59.5154 71.3417C59.9319 70.9251 60.4969 70.691 61.0861 70.691H111.999C112.588 70.691 113.153 70.9251 113.569 71.3417C113.986 71.7583 114.22 72.3234 114.22 72.9126V88.2859C114.22 88.8751 113.986 89.4402 113.569 89.8568C113.153 90.2734 112.588 90.5075 111.999 90.5075ZM63.1297 86.0643H109.777V75.1342H63.3074L63.1297 86.0643Z" fill="#EEEEEE"></path> <path d="M126.082 90.5075H61.0861C60.4969 90.5075 59.9319 90.2734 59.5154 89.8568C59.0988 89.4402 58.8647 88.8751 58.8647 88.2859V72.9126C58.8647 72.3234 59.0988 71.7583 59.5154 71.3417C59.9319 70.9251 60.4969 70.691 61.0861 70.691H126.082C126.667 70.7024 127.226 70.9401 127.64 71.3543C128.054 71.7685 128.292 72.327 128.303 72.9126V88.2859C128.303 88.8751 128.069 89.4402 127.652 89.8568C127.236 90.2734 126.671 90.5075 126.082 90.5075ZM63.3074 86.0643H123.86V75.1342H63.3074V86.0643Z" fill="#EEEEEE"></path> <path d="M93.7833 132.14C90.0685 132.14 86.4369 131.039 83.3475 128.976C80.2581 126.913 77.8495 123.98 76.4258 120.548C75.0022 117.117 74.6274 113.34 75.3489 109.695C76.0705 106.051 77.8558 102.702 80.4796 100.072C83.1033 97.4414 86.4476 95.6479 90.09 94.9177C93.7324 94.1875 97.5095 94.5533 100.944 95.969C104.379 97.3847 107.317 99.7867 109.387 102.872C111.457 105.957 112.567 109.586 112.576 113.301C112.576 118.29 110.597 123.075 107.074 126.607C103.551 130.138 98.7715 132.128 93.7833 132.14ZM93.7833 98.9942C90.9434 98.9943 88.1672 99.8371 85.8065 101.416C83.4458 102.995 81.6065 105.239 80.5218 107.864C79.437 110.489 79.1554 113.377 79.7127 116.162C80.27 118.947 81.6411 121.504 83.6524 123.509C85.6637 125.515 88.2247 126.878 91.0112 127.427C93.7977 127.975 96.6843 127.685 99.3056 126.592C101.927 125.499 104.165 123.652 105.736 121.286C107.308 118.921 108.142 116.141 108.133 113.301C108.121 109.503 106.604 105.864 103.914 103.182C101.225 100.5 97.5814 98.9942 93.7833 98.9942Z" fill="#EEEEEE"></path> <path d="M93.7834 115.523H77.2124C76.6232 115.523 76.0582 115.289 75.6417 114.872C75.2251 114.455 74.9911 113.89 74.9911 113.301C75.0028 108.324 76.9879 103.555 80.5109 100.04C84.0338 96.5251 88.807 94.5511 93.7834 94.5511C94.3725 94.5511 94.9375 94.7851 95.3541 95.2018C95.7706 95.6184 96.0047 96.1835 96.0047 96.7727V113.301C96.0047 113.89 95.7706 114.455 95.3541 114.872C94.9375 115.289 94.3725 115.523 93.7834 115.523ZM79.6114 111.08H91.562V99.172C88.5627 99.6274 85.7866 101.028 83.6374 103.169C81.4883 105.31 80.0779 108.082 79.6114 111.08Z" fill="#EEEEEE"></path> <path d="M159.936 73.1787C158.317 73.1875 156.732 72.7155 155.382 71.8225C154.032 70.9296 152.978 69.6558 152.352 68.1628C151.726 66.6697 151.558 65.0245 151.869 63.4357C152.179 61.847 152.954 60.3861 154.095 59.2383C155.237 58.0905 156.693 57.3074 158.28 56.9884C159.867 56.6693 161.513 56.8286 163.009 57.446C164.505 58.0635 165.785 59.1113 166.685 60.4567C167.585 61.8021 168.066 63.3844 168.066 65.0033C168.066 67.1638 167.211 69.2366 165.687 70.7685C164.164 72.3004 162.096 73.1669 159.936 73.1787ZM159.936 61.3155C158.954 61.3154 158.011 61.7025 157.313 62.3929C156.614 63.0832 156.216 64.0211 156.204 65.0033C156.216 65.9895 156.612 66.9322 157.31 67.6296C158.007 68.3271 158.95 68.724 159.936 68.7355C160.918 68.7238 161.856 68.3254 162.546 67.6268C163.236 66.9281 163.623 65.9855 163.623 65.0033C163.623 64.0252 163.235 63.0872 162.543 62.3956C161.852 61.704 160.914 61.3155 159.936 61.3155Z" fill="#EEEEEE"></path> <path d="M227.95 127.873H176.104C175.515 127.873 174.95 127.638 174.534 127.222C174.117 126.805 173.883 126.24 173.883 125.651V80.5975C173.883 80.0083 174.117 79.4432 174.534 79.0266C174.95 78.61 175.515 78.3759 176.104 78.3759H227.95C228.539 78.3759 229.104 78.61 229.521 79.0266C229.937 79.4432 230.171 80.0083 230.171 80.5975V125.651C230.171 126.24 229.937 126.805 229.521 127.222C229.104 127.638 228.539 127.873 227.95 127.873ZM178.326 123.429H225.728V82.8191H178.326V123.429Z" fill="#EEEEEE"></path> <path d="M257.671 145.203C256.275 145.213 254.904 144.828 253.717 144.093L226.795 127.52C226.471 127.327 226.202 127.054 226.015 126.727C225.828 126.4 225.73 126.03 225.728 125.654V80.6C225.721 80.2105 225.821 79.8265 226.017 79.4897C226.213 79.1529 226.497 78.8761 226.839 78.6895L253.806 62.6053C254.748 62.0489 255.799 61.7014 256.888 61.5864C257.976 61.4714 259.076 61.5916 260.114 61.9388C261.132 62.3146 262.056 62.9063 262.823 63.6733C263.59 64.4403 264.181 65.3644 264.557 66.382C268.976 78.1214 271.161 90.584 270.999 103.127C271.143 115.838 268.976 128.469 264.601 140.405C264.242 141.432 263.656 142.364 262.887 143.133C262.118 143.903 261.185 144.489 260.159 144.848C259.355 145.105 258.514 145.225 257.671 145.203ZM230.171 124.409L255.983 140.316C256.372 140.551 256.808 140.701 257.26 140.754C257.712 140.808 258.17 140.765 258.604 140.627C259.034 140.488 259.427 140.251 259.75 139.935C260.074 139.619 260.32 139.232 260.47 138.805C264.604 127.415 266.666 115.377 266.556 103.26C266.719 91.2404 264.655 79.2944 260.47 68.0259C260.314 67.6201 260.069 67.2541 259.754 66.9544C259.439 66.6547 259.061 66.4288 258.648 66.2931C258.225 66.1497 257.776 66.0993 257.331 66.1453C256.886 66.1913 256.457 66.3327 256.072 66.5597L230.171 81.9774V124.409Z" fill="#EEEEEE"></path> <path d="M38.6942 75.1795H19.7686C19.3718 75.1885 18.9795 75.0951 18.6293 74.9083C18.2791 74.7215 17.983 74.4477 17.7694 74.1132C17.5719 73.583 17.5719 72.9994 17.7694 72.4692V25.5052C17.8153 25.2555 17.8153 24.9995 17.7694 24.7498C17.6303 24.4506 17.5582 24.1246 17.5582 23.7946C17.5582 23.4646 17.6303 23.1385 17.7694 22.8393C18.0186 22.5957 18.3205 22.4128 18.6519 22.3049C18.9832 22.197 19.3349 22.167 19.6797 22.2172H83.0315C84.7097 22.2114 86.3725 22.5369 87.9245 23.1751C89.4766 23.8134 90.8874 24.7517 92.0761 25.9364C93.2648 27.1211 94.208 28.5288 94.8515 30.0789C95.495 31.6289 95.8263 33.2907 95.8263 34.9691V49.4537C95.8263 50.0429 95.5923 50.608 95.1757 51.0246C94.7591 51.4412 94.1941 51.6753 93.605 51.6753H46.3799C44.9306 51.6753 43.5407 52.2511 42.516 53.276C41.4912 54.3009 40.9155 55.6909 40.9155 57.1404V73.1801C40.8508 73.7262 40.5898 74.2302 40.1811 74.598C39.7725 74.9659 39.244 75.1726 38.6942 75.1795ZM22.212 70.7364H36.4728V56.9182C36.4728 55.6171 36.7291 54.3286 37.227 53.1265C37.7249 51.9244 38.4546 50.8321 39.3746 49.912C40.2945 48.992 41.3867 48.2621 42.5886 47.7642C43.7906 47.2663 45.0789 47.01 46.3799 47.01H91.3837V34.7469C91.3144 32.5781 90.404 30.5213 88.8451 29.012C87.2862 27.5027 85.2012 26.6593 83.0315 26.6604H22.212V70.7364Z" fill="#EEEEEE"></path> <path d="M11.9062 82.8202H2.22131C1.63218 82.8202 1.06718 82.5862 0.650607 82.1696C0.23403 81.7529 0 81.1879 0 80.5987V17.7726C0 17.1834 0.23403 16.6183 0.650607 16.2017C1.06718 15.7851 1.63218 15.551 2.22131 15.551H11.9062C14.2745 15.554 16.567 16.3868 18.385 17.9047C20.2031 19.4226 21.4318 21.5297 21.8577 23.8597C21.9135 24.4063 21.9135 24.9571 21.8577 25.5037V72.6899C21.8765 72.8671 21.8765 73.0458 21.8577 73.223C21.7127 75.7823 20.6072 78.1925 18.7622 79.9718C16.9173 81.7511 14.4687 82.7684 11.9062 82.8202ZM4.44262 78.3771H11.9062C13.4114 78.4132 14.8703 77.8555 15.9676 76.8246C17.0649 75.7936 17.7126 74.3722 17.7705 72.8676C17.7489 72.7352 17.7489 72.6001 17.7705 72.4677V25.5037C17.8164 25.254 17.8164 24.998 17.7705 24.7483C17.5739 23.3474 16.8662 22.0687 15.7836 21.1582C14.701 20.2477 13.32 19.7698 11.9062 19.8164H4.44262V78.3771Z" fill="#EEEEEE"></path> </g> <defs> <clipPath id="clip0_0_10238"> <rect width="271" height="152" fill="white"></rect> </clipPath> </defs> </svg> 