<?xml version="1.0" encoding="UTF-8"?> <svg xmlns="http://www.w3.org/2000/svg" width="12" height="12" viewBox="0 0 12 12" fill="none"> <path fill-rule="evenodd" clip-rule="evenodd" d="M8.16611 7.19101C8.02637 7.11651 7.34129 6.75751 7.21375 6.70751C7.0862 6.65801 6.99336 6.63351 6.90005 6.78251C6.8072 6.93051 6.54039 7.26551 6.45927 7.36451C6.37768 7.46401 6.29656 7.47601 6.15729 7.40201C6.01802 7.32701 5.5688 7.17051 5.03659 6.66451C4.62254 6.27051 4.3426 5.78401 4.26148 5.63501C4.18035 5.48651 4.25257 5.40601 4.32243 5.33201C4.38527 5.26551 4.4617 5.15851 4.53157 5.07201C4.60144 4.98501 4.62441 4.92301 4.67084 4.82351C4.71773 4.72451 4.69428 4.63801 4.65911 4.56351C4.62441 4.48901 4.34588 3.75751 4.22959 3.46001C4.11658 3.17052 4.0017 3.21002 3.91636 3.20502C3.83477 3.20102 3.74192 3.20002 3.64908 3.20002C3.55623 3.20002 3.40524 3.23702 3.2777 3.38601C3.14968 3.53451 2.79003 3.89401 2.79003 4.62551C2.79003 5.35651 3.28895 6.06301 3.35882 6.16251C3.42869 6.26151 4.34119 7.76251 5.73902 8.40601C6.07195 8.55901 6.33126 8.65051 6.53336 8.71851C6.86722 8.83201 7.17108 8.81601 7.41116 8.77751C7.67844 8.73501 8.23551 8.41801 8.3518 8.07101C8.46762 7.72401 8.46762 7.42651 8.43292 7.36451C8.39822 7.30251 8.30538 7.26551 8.16564 7.19101H8.16611ZM5.62695 11.173C4.79671 11.1732 3.86542 11.0112 3.15109 10.56L0.900312 11.04L1.57555 8.63999C1.11139 7.85216 0.766108 6.8764 0.767377 5.94601C0.768315 3.22102 3.06997 0.719999 5.62695 0.719999C6.86488 0.719999 8.12813 1.226 9.00312 2.16C9.43469 2.61829 9.89574 3.23983 10.1285 3.83999C10.3613 4.44016 10.6739 5.32997 10.5787 5.99999C10.5777 8.72499 8.18158 11.173 5.62695 11.173ZM9.56816 1.74402C9.05151 1.18948 8.43678 0.749788 7.7596 0.45042C7.08243 0.151052 6.35626 -0.00203812 5.6232 2.04887e-05C2.54995 2.04887e-05 0.0478291 2.66752 0.0468912 5.94601C0.0464223 6.99401 0.302917 8.01701 0.791055 8.91851L0 12L2.95602 11.173C3.77375 11.6481 4.69011 11.897 5.62132 11.897H5.62367C8.69692 11.897 11.199 9.22951 11.2 5.95051C11.2022 5.16915 11.0592 4.39506 10.7791 3.67303C10.499 2.951 10.0874 2.29535 9.56816 1.74402Z" fill="#333333"></path> </svg> 