<?xml version="1.0" encoding="UTF-8"?> <svg xmlns="http://www.w3.org/2000/svg" width="162" height="272" viewBox="0 0 162 272" fill="none"> <g opacity="0.02" clip-path="url(#clip0_117_15504)"> <path d="M155.197 64.6173C153.422 64.6604 151.735 65.3925 150.496 66.6572C149.256 67.922 148.563 69.619 148.563 71.386V135.638H138.613V80.3007V57.1883C138.797 49.5825 137.451 42.0169 134.654 34.9366C131.858 27.8563 127.667 21.4044 122.328 15.9604C116.989 10.5164 110.611 6.19027 103.568 3.23658C96.5253 0.282896 88.9601 -1.23871 81.3177 -1.23871C73.6753 -1.23871 66.1101 0.282896 59.0672 3.23658C52.0243 6.19027 45.6459 10.5164 40.3073 15.9604C34.9687 21.4044 30.7778 27.8563 27.981 34.9366C25.1843 42.0169 23.8382 49.5825 24.022 57.1883V135.771H13.6077V71.386C13.6077 69.5908 12.8913 67.8692 11.6162 66.5998C10.3411 65.3304 8.61173 64.6173 6.80847 64.6173C5.00521 64.6173 3.27581 65.3304 2.00072 66.5998C0.725619 67.8692 0.00927734 69.5908 0.00927734 71.386L0.00927734 153.303C0.0429178 173.504 7.68055 192.96 21.4154 207.831C35.1502 222.702 53.9848 231.909 74.2034 233.635V258.464H60.1738C58.3706 258.464 56.6412 259.177 55.3661 260.447C54.091 261.716 53.3747 263.438 53.3747 265.233C53.3747 267.028 54.091 268.75 55.3661 270.019C56.6412 271.289 58.3706 272.002 60.1738 272.002H101.865C103.668 272.002 105.397 271.289 106.672 270.019C107.947 268.75 108.664 267.028 108.664 265.233C108.664 263.438 107.947 261.716 106.672 260.447C105.397 259.177 103.668 258.464 101.865 258.464H87.8018V233.635C108.02 231.909 126.855 222.702 140.59 207.831C154.325 192.96 161.962 173.504 161.996 153.303V71.386C161.996 70.4971 161.82 69.6169 161.478 68.7957C161.137 67.9745 160.636 67.2283 160.004 66.5998C159.373 65.9713 158.624 65.4727 157.799 65.1326C156.974 64.7924 156.09 64.6173 155.197 64.6173V64.6173ZM74.2034 220.065C57.6008 218.359 42.221 210.593 31.0311 198.264C19.8412 185.936 13.6343 169.919 13.6077 153.303V149.176H23.7235V153.402C23.7434 167.348 28.8876 180.805 38.1864 191.236C47.4852 201.667 60.296 208.351 74.2034 210.027V220.065ZM81.0026 196.952C69.4117 196.935 58.3015 192.339 50.1117 184.173C41.9219 176.008 37.3219 164.941 37.3219 153.402V140.195H58.7145C60.3858 140.195 61.9887 139.534 63.1705 138.357C64.3523 137.181 65.0162 135.585 65.0162 133.922C65.0162 132.258 64.3523 130.662 63.1705 129.486C61.9887 128.309 60.3858 127.648 58.7145 127.648H37.3219V108.96H58.7145C60.3858 108.96 61.9887 108.299 63.1705 107.123C64.3523 105.946 65.0162 104.351 65.0162 102.687C65.0162 101.023 64.3523 99.4273 63.1705 98.2508C61.9887 97.0743 60.3858 96.4134 58.7145 96.4134H37.3219V77.6593H58.7145C60.3858 77.6593 61.9887 76.9984 63.1705 75.8219C64.3523 74.6454 65.0162 73.0498 65.0162 71.386C65.0162 69.7222 64.3523 68.1265 63.1705 66.95C61.9887 65.7735 60.3858 65.1126 58.7145 65.1126H37.3219V57.0563C37.161 51.2428 38.1723 45.4562 40.2959 40.0384C42.4195 34.6206 45.6125 29.6815 49.6861 25.513C53.7596 21.3445 58.6312 18.031 64.0129 15.7685C69.3946 13.506 75.1773 12.3403 81.0192 12.3403C86.8611 12.3403 92.6438 13.506 98.0255 15.7685C103.407 18.031 108.279 21.3445 112.352 25.513C116.426 29.6815 119.619 34.6206 121.742 40.0384C123.866 45.4562 124.877 51.2428 124.716 57.0563V65.1126H103.291C101.619 65.1126 100.017 65.7735 98.8347 66.95C97.6529 68.1265 96.989 69.7222 96.989 71.386C96.989 73.0498 97.6529 74.6454 98.8347 75.8219C100.017 76.9984 101.619 77.6593 103.291 77.6593H124.716V96.4464H103.291C101.619 96.4464 100.017 97.1073 98.8347 98.2838C97.6529 99.4603 96.989 101.056 96.989 102.72C96.989 104.384 97.6529 105.979 98.8347 107.156C100.017 108.332 101.619 108.993 103.291 108.993H124.716V127.813H103.291C101.619 127.813 100.017 128.474 98.8347 129.651C97.6529 130.827 96.989 132.423 96.989 134.087C96.989 135.75 97.6529 137.346 98.8347 138.523C100.017 139.699 101.619 140.36 103.291 140.36H124.716V153.567C124.655 165.072 120.024 176.084 111.833 184.201C103.643 192.317 92.5592 196.878 81.0026 196.886V196.952ZM148.398 153.369C148.362 169.975 142.15 185.98 130.96 198.297C119.771 210.613 104.396 218.367 87.8018 220.065V210.159C101.735 208.481 114.568 201.779 123.875 191.321C133.182 180.863 138.319 167.374 138.315 153.402V149.176H148.265L148.398 153.369Z" fill="#3C3C3B"></path> </g> <defs> <clipPath id="clip0_117_15504"> <rect width="162" height="272" fill="white"></rect> </clipPath> </defs> </svg> 