<?xml version="1.0" encoding="UTF-8"?> <svg xmlns="http://www.w3.org/2000/svg" width="44" height="29" viewBox="0 0 44 29" fill="none"> <g clip-path="url(#clip0_105_40342)"> <path d="M11.4701 8.34004C12.0808 6.30991 13.2034 4.471 14.7301 3.00004C15.0281 2.70296 15.2006 2.30269 15.2117 1.88203C15.2229 1.46137 15.0719 1.05251 14.7901 0.740037L14.6101 0.540037C14.3715 0.27478 14.052 0.0957066 13.7012 0.0306121C13.3504 -0.0344824 12.988 0.0180436 12.6701 0.180037C-0.259915 7.00004 -0.099915 16.17 8.49944e-05 17.73C8.49944e-05 17.91 8.49944e-05 18.08 8.49944e-05 18.25C0.00365268 20.1643 0.556566 22.0373 1.59315 23.6465C2.62974 25.2558 4.10644 26.5338 5.84786 27.3286C7.58928 28.1234 9.52224 28.4017 11.4172 28.1305C13.3121 27.8592 15.0893 27.0498 16.5378 25.7983C17.9863 24.5468 19.0451 22.9059 19.5886 21.0704C20.1321 19.2349 20.1373 17.2821 19.6036 15.4437C19.07 13.6053 18.02 11.9588 16.5782 10.6996C15.1364 9.44037 13.3635 8.62143 11.4701 8.34004Z" fill="#2C2F36"></path> <path d="M35.3601 8.33999C35.9708 6.30987 37.0935 4.47095 38.6201 2.99999C38.9195 2.70422 39.0938 2.30466 39.1068 1.88398C39.1199 1.4633 38.9707 1.05372 38.6901 0.73999L38.5101 0.53999C38.2689 0.275345 37.9478 0.0968972 37.5957 0.0318938C37.2436 -0.0331096 36.8799 0.0189029 36.5601 0.17999C23.6301 6.99999 23.7901 16.17 23.9201 17.73C23.9201 17.91 23.9201 18.08 23.9201 18.25C23.9228 20.1657 24.4758 22.0403 25.5131 23.6509C26.5505 25.2614 28.0287 26.54 29.7718 27.3347C31.5149 28.1294 33.4496 28.4067 35.3457 28.1336C37.2419 27.8605 39.0197 27.0485 40.4676 25.7942C41.9156 24.5399 42.9728 22.896 43.5135 21.0582C44.0542 19.2204 44.0556 17.2659 43.5176 15.4273C42.9796 13.5887 41.9248 11.9433 40.4786 10.6869C39.0325 9.43045 37.2559 8.61585 35.3601 8.33999Z" fill="#2C2F36"></path> </g> <defs> <clipPath id="clip0_105_40342"> <rect width="43.95" height="28.28" fill="white"></rect> </clipPath> </defs> </svg> 