<?xml version="1.0" encoding="UTF-8"?> <svg xmlns="http://www.w3.org/2000/svg" width="19" height="19" viewBox="0 0 19 19" fill="none"> <path d="M11.0833 9.49984L8.3125 11.0832V7.9165L11.0833 9.49984Z" fill="white" stroke="white" stroke-linecap="round" stroke-linejoin="round"></path> <path d="M1.58325 10.0594V8.93924C1.58325 6.64736 1.58325 5.50103 2.29971 4.76399C3.01696 4.02616 4.14588 3.99449 6.40292 3.93036C7.47167 3.90028 8.56417 3.87891 9.49992 3.87891C10.4349 3.87891 11.5274 3.90028 12.5969 3.93036C14.854 3.99449 15.9829 4.02616 16.6993 4.76399C17.4166 5.50103 17.4166 6.64816 17.4166 8.93924V10.0594C17.4166 12.3521 17.4166 13.4977 16.7001 14.2355C15.9829 14.9725 14.8548 15.005 12.5969 15.0683C11.5282 15.0992 10.4357 15.1206 9.49992 15.1206C8.56496 15.1206 7.47246 15.0992 6.40292 15.0683C4.14588 15.005 3.01696 14.9733 2.29971 14.2355C1.58325 13.4977 1.58325 12.3513 1.58325 10.0602V10.0594Z" stroke="white"></path> </svg> 