<?xml version="1.0" encoding="UTF-8"?> <svg xmlns="http://www.w3.org/2000/svg" width="1786" height="1322" viewBox="0 0 1786 1322" fill="none"> <path fill-rule="evenodd" clip-rule="evenodd" d="M401.784 29.0456C420.382 47.6491 430.829 72.8774 430.829 99.1828C430.829 125.488 420.382 150.716 401.784 169.32C337.293 233.804 286.135 310.361 251.232 394.617C216.33 478.874 198.366 569.18 198.366 660.38C198.366 751.579 216.33 841.885 251.232 926.142C286.135 1010.4 337.293 1086.95 401.784 1151.44C411.259 1160.59 418.816 1171.54 424.015 1183.64C429.215 1195.74 431.951 1208.76 432.066 1221.93C432.18 1235.11 429.67 1248.17 424.682 1260.36C419.694 1272.55 412.328 1283.63 403.013 1292.94C393.699 1302.26 382.622 1309.62 370.431 1314.61C358.239 1319.6 345.176 1322.11 332.003 1322C318.831 1321.88 305.814 1319.14 293.71 1313.95C281.607 1308.75 270.661 1301.19 261.509 1291.71C178.601 1208.81 112.834 1110.38 67.9641 1002.06C23.0942 893.731 0 777.629 0 660.38C0 543.13 23.0942 427.028 67.9641 318.704C112.834 210.379 178.601 111.953 261.509 29.0456C280.113 10.4477 305.341 0 331.646 0C357.952 0 383.18 10.4477 401.784 29.0456ZM1383.9 29.0456C1402.51 10.4477 1427.73 0 1454.04 0C1480.35 0 1505.57 10.4477 1524.18 29.0456C1607.09 111.953 1672.85 210.379 1717.72 318.704C1762.59 427.028 1785.69 543.13 1785.69 660.38C1785.69 777.629 1762.59 893.731 1717.72 1002.06C1672.85 1110.38 1607.09 1208.81 1524.18 1291.71C1515.03 1301.19 1504.08 1308.75 1491.98 1313.95C1479.87 1319.14 1466.86 1321.88 1453.68 1322C1440.51 1322.11 1427.45 1319.6 1415.26 1314.61C1403.06 1309.62 1391.99 1302.26 1382.67 1292.94C1373.36 1283.63 1365.99 1272.55 1361 1260.36C1356.02 1248.17 1353.51 1235.11 1353.62 1221.93C1353.74 1208.76 1356.47 1195.74 1361.67 1183.64C1366.87 1171.54 1374.43 1160.59 1383.9 1151.44C1448.39 1086.95 1499.55 1010.4 1534.45 926.142C1569.36 841.885 1587.32 751.579 1587.32 660.38C1587.32 569.18 1569.36 478.874 1534.45 394.617C1499.55 310.361 1448.39 233.804 1383.9 169.32C1365.3 150.716 1354.86 125.488 1354.86 99.1828C1354.86 72.8774 1365.3 47.6491 1383.9 29.0456ZM682.432 309.594C701.029 328.198 711.477 353.426 711.477 379.732C711.477 406.037 701.029 431.265 682.432 449.869C654.79 477.505 632.864 510.316 617.904 546.427C602.945 582.538 595.245 621.243 595.245 660.33C595.245 699.417 602.945 738.121 617.904 774.233C632.864 810.344 654.79 843.155 682.432 870.791C691.642 880.008 698.947 890.949 703.929 902.989C708.912 915.029 711.473 927.933 711.469 940.963C711.464 953.994 708.893 966.896 703.902 978.932C698.912 990.969 691.599 1001.9 682.382 1011.12C673.165 1020.33 662.224 1027.63 650.184 1032.61C638.144 1037.6 625.24 1040.16 612.21 1040.15C599.179 1040.15 586.278 1037.58 574.241 1032.59C562.204 1027.6 551.269 1020.28 542.058 1011.07C449.069 918.048 396.83 791.906 396.83 660.38C396.83 528.853 449.069 402.711 542.058 309.694C551.271 300.47 562.212 293.153 574.256 288.16C586.299 283.168 599.208 280.598 612.245 280.598C625.282 280.598 638.191 283.168 650.234 288.16C662.277 293.153 673.218 300.47 682.432 309.694V309.594ZM1103.25 309.594C1112.47 300.371 1123.41 293.054 1135.45 288.061C1147.5 283.069 1160.4 280.499 1173.44 280.499C1186.48 280.499 1199.39 283.069 1211.43 288.061C1223.47 293.054 1234.41 300.371 1243.63 309.594C1289.7 355.656 1326.25 410.342 1351.19 470.531C1376.12 530.719 1388.96 595.23 1388.96 660.38C1388.96 725.529 1376.12 790.04 1351.19 850.228C1326.25 910.417 1289.7 965.103 1243.63 1011.16C1225.01 1029.78 1199.77 1040.24 1173.44 1040.24C1147.12 1040.24 1121.87 1029.78 1103.25 1011.16C1084.64 992.55 1074.18 967.303 1074.18 940.978C1074.18 914.653 1084.64 889.406 1103.25 870.791C1159.05 814.981 1190.39 739.296 1190.39 660.38C1190.39 581.464 1159.05 505.778 1103.25 449.968C1094.03 440.755 1086.71 429.814 1081.72 417.77C1076.73 405.727 1074.16 392.818 1074.16 379.781C1074.16 366.744 1076.73 353.835 1081.72 341.792C1086.71 329.749 1094.03 318.808 1103.25 309.594ZM892.843 561.176C919.154 561.176 944.387 571.627 962.991 590.232C981.595 608.836 992.047 634.069 992.047 660.38V661.372C992.047 687.682 981.595 712.915 962.991 731.519C944.387 750.124 919.154 760.576 892.843 760.576C866.533 760.576 841.3 750.124 822.695 731.519C804.091 712.915 793.639 687.682 793.639 661.372V660.38C793.639 634.069 804.091 608.836 822.695 590.232C841.3 571.627 866.533 561.176 892.843 561.176Z" fill="#FFFAFA"></path> </svg> 