<?xml version="1.0" encoding="UTF-8"?> <svg xmlns="http://www.w3.org/2000/svg" width="52" height="52" viewBox="0 0 52 52" fill="none"> <g clip-path="url(#clip0_135_131)"> <path d="M51.9987 26.1586C51.9987 11.7091 40.3572 -0.00390625 25.9987 -0.00390625C11.6337 -0.00065625 -0.0078125 11.7091 -0.0078125 26.1618C-0.0078125 39.2171 9.50169 50.0396 21.9297 52.0026V33.7213H15.3322V26.1618H21.9362V20.3931C21.9362 13.8378 25.8199 10.2173 31.7577 10.2173C34.6047 10.2173 37.5784 10.7276 37.5784 10.7276V17.1626H34.2992C31.0719 17.1626 30.0644 19.1808 30.0644 21.2511V26.1586H37.2729L36.1224 33.7181H30.0612V51.9993C42.4892 50.0363 51.9987 39.2138 51.9987 26.1586Z" fill="white"></path> </g> <defs> <clipPath id="clip0_135_131"> <rect width="13" height="13" fill="white" transform="scale(4)"></rect> </clipPath> </defs> </svg> 