<?xml version="1.0" encoding="UTF-8"?> <svg xmlns="http://www.w3.org/2000/svg" width="44" height="44" viewBox="0 0 44 44" fill="none"> <path d="M29.3352 31.2705L33.124 27.4801C33.6343 26.976 34.28 26.6308 34.9826 26.4867C35.6852 26.3425 36.4145 26.4055 37.082 26.6679L41.6996 28.5123C42.3742 28.7863 42.9526 29.2538 43.362 29.8561C43.7713 30.4583 43.9933 31.1683 44 31.8966V40.3572C43.9961 40.8526 43.892 41.3421 43.694 41.7962C43.496 42.2503 43.2081 42.6597 42.8478 42.9996C42.4875 43.3395 42.0622 43.6029 41.5974 43.774C41.1327 43.9451 40.6381 44.0204 40.1435 43.9953C7.78624 41.9816 1.25728 14.5693 0.0225257 4.07809C-0.0347923 3.5629 0.0175776 3.0414 0.17619 2.54792C0.334803 2.05443 0.596063 1.60013 0.942783 1.21491C1.2895 0.829683 1.71383 0.522267 2.18784 0.312882C2.66185 0.103496 3.1748 -0.00311208 3.69295 6.91554e-05H11.8626C12.5916 0.00222794 13.3034 0.222528 13.9062 0.632635C14.5091 1.04274 14.9755 1.6239 15.2455 2.30136L17.0892 6.92085C17.3602 7.58597 17.4294 8.31625 17.288 9.02046C17.1466 9.72467 16.8009 10.3716 16.2942 10.8804L12.5054 14.6708C12.5054 14.6708 14.6873 29.443 29.3352 31.2705Z" fill="#393939"></path> </svg> 