<?xml version="1.0" encoding="UTF-8"?> <svg xmlns="http://www.w3.org/2000/svg" width="3103" height="343" viewBox="0 0 3103 343" fill="none"> <path d="M1.00049 278.201C70.0005 226.624 248.5 129.296 410.5 152.603C613 181.736 677.222 252.369 839.5 278.201C1173 331.289 1510.89 174.382 1669 152.603C1974.5 110.521 2053 221.876 2266.5 221.876C2480 221.876 2505.5 152.603 2578 152.603" stroke="#F5F5F5"></path> <path d="M2702 334.011C2633 296.211 2454.5 224.881 2292.5 241.963C2090 263.314 2025.78 315.079 1863.5 334.011C1530 372.918 1192.11 257.924 1034 241.963C728.5 211.122 650 292.731 436.5 292.731C223 292.731 197.5 241.963 125 241.963" stroke="#F5F5F5"></path> <path d="M3102 50.4374C3024.57 90.3568 2824.25 165.686 2642.44 147.647C2415.19 125.098 2343.12 70.4308 2161.01 50.4374C1786.74 9.34875 1407.55 130.791 1230.11 147.647C887.269 180.217 799.173 94.0315 559.576 94.0314C319.979 94.0314 291.362 147.647 210 147.647" stroke="#F5F5F5"></path> <path d="M2886 107.103C2808.75 67.398 2608.92 -7.52581 2427.56 10.416C2200.85 32.8433 2193.02 107.103 1947.28 107.103C1701.55 107.103 1195.65 27.1817 1018.64 10.416C676.63 -21.9789 494.138 37.5171 349.73 63.7432C127.5 104.103 82.1651 10.416 1 10.416" stroke="#F5F5F5"></path> </svg> 