<?xml version="1.0" encoding="UTF-8"?> <svg xmlns="http://www.w3.org/2000/svg" width="199" height="138" viewBox="0 0 199 138" fill="none"> <g opacity="0.02"> <path fill-rule="evenodd" clip-rule="evenodd" d="M0 27.5346C0 20.232 2.62075 13.2284 7.28572 8.0647C11.9507 2.90096 18.2777 1.90694e-07 24.875 1.90694e-07H118.156C124.19 -0.000785397 130.018 2.4257 134.555 6.82759C139.092 11.2295 142.029 17.3067 142.82 23.9276L181.5 4.90116C183.394 3.96735 185.468 3.57212 187.534 3.75139C189.601 3.93067 191.594 4.67877 193.333 5.92769C195.071 7.17661 196.501 8.88675 197.49 10.9027C198.48 12.9186 198.999 15.1763 199 17.4707V120.202C198.998 122.495 198.479 124.751 197.49 126.765C196.501 128.779 195.073 130.488 193.336 131.737C191.599 132.985 189.608 133.734 187.543 133.915C185.478 134.096 183.406 133.703 181.513 132.772L142.82 113.746C142.029 120.366 139.092 126.444 134.555 130.846C130.018 135.247 124.19 137.674 118.156 137.673H24.875C18.2777 137.673 11.9507 134.772 7.28572 129.608C2.62075 124.445 0 117.441 0 110.138V27.5346ZM143.031 98.7804L186.562 120.202V17.4707L143.031 38.8926V98.7804ZM24.875 13.7673C21.5764 13.7673 18.4128 15.2178 16.0804 17.7997C13.7479 20.3815 12.4375 23.8833 12.4375 27.5346V110.138C12.4375 113.79 13.7479 117.292 16.0804 119.873C18.4128 122.455 21.5764 123.906 24.875 123.906H118.156C121.455 123.906 124.618 122.455 126.951 119.873C129.283 117.292 130.594 113.79 130.594 110.138V27.5346C130.594 23.8833 129.283 20.3815 126.951 17.7997C124.618 15.2178 121.455 13.7673 118.156 13.7673H24.875Z" fill="black"></path> </g> </svg> 