<?xml version="1.0" encoding="UTF-8"?> <svg xmlns="http://www.w3.org/2000/svg" width="60" height="38" viewBox="0 0 60 38" fill="none"> <g clip-path="url(#clip0_0_10325)"> <path d="M15.6584 11.2066C16.4921 8.47875 18.0247 6.00779 20.1089 4.03124C20.5158 3.63206 20.7512 3.09421 20.7664 2.52897C20.7817 1.96372 20.5756 1.41434 20.1908 0.994468L19.9451 0.725727C19.6194 0.3693 19.1832 0.128678 18.7043 0.0412101C18.2254 -0.0462577 17.7306 0.0243218 17.2966 0.241993C-0.355262 9.40607 -0.136831 21.7278 -0.000312569 23.824C-0.000312569 24.0659 -0.000312569 24.2943 -0.000312569 24.5228C0.004558 27.0949 0.759388 29.6117 2.17452 31.7741C3.58966 33.9365 5.60563 35.6537 7.983 36.7217C10.3604 37.7897 12.9992 38.1637 15.5861 37.7992C18.1731 37.4347 20.5993 36.347 22.5768 34.6654C24.5542 32.9838 25.9998 30.7789 26.7417 28.3125C27.4836 25.8462 27.4907 23.2221 26.7622 20.7519C26.0337 18.2817 24.6002 16.0692 22.6319 14.3772C20.6636 12.6852 18.2433 11.5847 15.6584 11.2066Z" fill="url(#paint0_linear_0_10325)"></path> <path d="M48.2732 11.2066C49.1069 8.47869 50.6395 6.00773 52.7237 4.03119C53.1325 3.63377 53.3704 3.09687 53.3881 2.5316C53.4059 1.96634 53.2022 1.41597 52.8192 0.994413L52.5735 0.725672C52.2443 0.370066 51.8058 0.130285 51.3251 0.04294C50.8445 -0.0444055 50.3479 0.0254841 49.9114 0.241938C32.2595 9.40601 32.4779 21.7278 32.6554 23.824C32.6554 24.0658 32.6554 24.2943 32.6554 24.5227C32.6591 27.0969 33.414 29.6158 34.8302 31.7799C36.2464 33.944 38.2644 35.6621 40.644 36.7299C43.0237 37.7978 45.6649 38.1704 48.2535 37.8034C50.8421 37.4364 53.2691 36.3453 55.2459 34.6599C57.2227 32.9744 58.666 30.7656 59.4041 28.2961C60.1423 25.8266 60.1442 23.2004 59.4097 20.7298C58.6752 18.2593 57.2352 16.0484 55.2609 14.3601C53.2866 12.6718 50.8612 11.5773 48.2732 11.2066Z" fill="url(#paint1_linear_0_10325)"></path> </g> <defs> <linearGradient id="paint0_linear_0_10325" x1="0.751384" y1="0.00466961" x2="31.9264" y2="7.87881" gradientUnits="userSpaceOnUse"> <stop stop-color="#FB7C5E"></stop> <stop offset="1" stop-color="#F84C33"></stop> </linearGradient> <linearGradient id="paint1_linear_0_10325" x1="33.3966" y1="0.00631756" x2="64.5829" y2="7.88554" gradientUnits="userSpaceOnUse"> <stop stop-color="#FB7C5E"></stop> <stop offset="1" stop-color="#F84C33"></stop> </linearGradient> <clipPath id="clip0_0_10325"> <rect width="60" height="38" fill="white"></rect> </clipPath> </defs> </svg> 