<?xml version="1.0" encoding="UTF-8"?> <svg xmlns="http://www.w3.org/2000/svg" width="48" height="48" viewBox="0 0 48 48" fill="none"> <path d="M15.0301 42.97C8.5001 39.87 3.8101 33.52 3.1001 26H0.100098C1.1201 38.32 11.4201 48 24.0001 48C24.4501 48 24.8801 47.96 25.3201 47.93L17.7001 40.3L15.0301 42.97ZM16.8101 29.92C16.4301 29.92 16.0801 29.87 15.7601 29.75C15.4501 29.64 15.1801 29.48 14.9601 29.28C14.7401 29.08 14.5701 28.83 14.4501 28.55C14.3301 28.26 14.2701 27.95 14.2701 27.61H11.6701C11.6701 28.33 11.8101 28.96 12.0901 29.51C12.3701 30.06 12.7401 30.52 13.2101 30.88C13.6801 31.25 14.2201 31.52 14.8401 31.71C15.4601 31.91 16.1001 32 16.7801 32C17.5201 32 18.2101 31.9 18.8501 31.7C19.4901 31.5 20.0401 31.2 20.5101 30.81C20.9801 30.42 21.3401 29.94 21.6101 29.37C21.8701 28.8 22.0101 28.15 22.0101 27.42C22.0101 27.03 21.9601 26.66 21.8701 26.3C21.7701 25.94 21.6201 25.6 21.4201 25.28C21.2101 24.96 20.9401 24.68 20.6101 24.42C20.2801 24.17 19.8701 23.96 19.4001 23.79C19.8001 23.61 20.1501 23.39 20.4501 23.13C20.7501 22.87 21.0001 22.59 21.2001 22.3C21.4001 22 21.5501 21.7 21.6501 21.38C21.7501 21.06 21.8001 20.74 21.8001 20.43C21.8001 19.7 21.6801 19.06 21.4401 18.51C21.2001 17.96 20.8601 17.5 20.4201 17.13C19.9801 16.76 19.4601 16.48 18.8401 16.29C18.2001 16.09 17.5201 16 16.7801 16C16.0601 16 15.3901 16.11 14.7801 16.32C14.1701 16.53 13.6501 16.83 13.2101 17.21C12.7701 17.59 12.4301 18.04 12.1801 18.56C11.9301 19.08 11.8101 19.65 11.8101 20.26H14.4101C14.4101 19.92 14.4701 19.62 14.5901 19.36C14.7101 19.09 14.8801 18.86 15.0901 18.68C15.3001 18.49 15.5601 18.34 15.8501 18.24C16.1401 18.14 16.4601 18.08 16.8001 18.08C17.6001 18.08 18.1901 18.29 18.5801 18.7C18.9701 19.11 19.1601 19.69 19.1601 20.43C19.1601 20.79 19.1101 21.11 19.0001 21.4C18.8901 21.69 18.7301 21.94 18.5101 22.15C18.2901 22.36 18.0101 22.52 17.6901 22.64C17.3601 22.76 16.9701 22.82 16.5301 22.82H14.9901V24.87H16.5301C16.9701 24.87 17.3701 24.92 17.7201 25.02C18.0701 25.12 18.3701 25.27 18.6201 25.49C18.8701 25.7 19.0601 25.97 19.2001 26.29C19.3301 26.61 19.4001 26.99 19.4001 27.43C19.4001 28.24 19.1701 28.86 18.7001 29.29C18.2501 29.71 17.6201 29.92 16.8101 29.92V29.92ZM33.9301 18.07C33.3001 17.41 32.5401 16.9 31.6601 16.54C30.7701 16.18 29.8001 16 28.7301 16H24.0001V32H28.5901C29.7001 32 30.7001 31.82 31.6101 31.46C32.5201 31.1 33.2901 30.59 33.9301 29.93C34.5701 29.27 35.0701 28.47 35.4101 27.54C35.7601 26.61 35.9301 25.56 35.9301 24.4V23.61C35.9301 22.45 35.7501 21.41 35.4001 20.47C35.0501 19.53 34.5601 18.73 33.9301 18.07ZM33.1401 24.41C33.1401 25.24 33.0501 26 32.8501 26.66C32.6601 27.33 32.3801 27.89 32.0001 28.35C31.6201 28.81 31.1501 29.16 30.5801 29.41C30.0101 29.65 29.3501 29.78 28.5901 29.78H26.7801V18.24H28.7301C30.1701 18.24 31.2601 18.7 32.0201 19.61C32.7701 20.53 33.1501 21.85 33.1501 23.59V24.41H33.1401ZM24.0001 0C23.5501 0 23.1201 0.04 22.6801 0.07L30.3001 7.7L32.9601 5.04C39.5001 8.13 44.1901 14.48 44.9001 22H47.9001C46.8801 9.68 36.5801 0 24.0001 0Z" fill="#4D4D4D"></path> </svg> 