<svg width="109" height="118" viewBox="0 0 109 118" fill="none" xmlns="http://www.w3.org/2000/svg">
<ellipse cx="54.0316" cy="59" rx="54.0316" ry="59" fill="#FFF4EE"/>
<path d="M36.9451 98.867C37.1415 99.1309 37.3998 99.2498 37.6456 99.2498H46.0819C46.1086 99.2498 46.1501 99.2398 46.1963 99.1899C46.2433 99.139 46.2839 99.0552 46.2839 98.9456C46.2839 98.8351 46.2426 98.7478 46.1933 98.694C46.1451 98.6413 46.104 98.6331 46.0819 98.6331H38.2541H36.8892L37.3006 97.3317C38.5862 93.2643 42.6043 91.9163 45.5561 91.9163C47.2152 91.9163 48.6592 92.2086 49.9306 92.8413L49.9358 92.8439C49.9657 92.859 49.9911 92.8603 50.0239 92.8469C50.0605 92.8319 50.1177 92.7909 50.1568 92.6985C50.1944 92.6097 50.1971 92.5059 50.1646 92.4112C50.1321 92.3165 50.0773 92.2646 50.0343 92.2426C48.7709 91.6114 47.315 91.2913 45.5485 91.2913C43.523 91.2913 41.5725 91.8721 40.0605 92.8921L36.9451 98.867ZM36.9451 98.867C36.7504 98.5911 36.6586 98.1678 36.7507 97.7539C37.2133 95.7131 38.3572 94.0449 40.0604 92.8921L36.9451 98.867ZM63.5541 76.7414L63.5543 76.7417C64.5269 77.8791 65.0292 79.4654 64.9093 81.2416L64.9092 81.2417C64.7945 82.9441 64.1744 84.5141 63.1932 85.6636L63.1918 85.6652C62.1823 86.8529 60.9584 87.4375 59.7544 87.4375C58.5506 87.4375 57.3252 86.853 56.3068 85.6704C55.3246 84.5191 54.6998 82.95 54.5922 81.254C54.4785 79.456 54.9832 77.8602 55.9406 76.7321C56.8955 75.615 58.2376 75 59.7544 75C61.252 75 62.5961 75.6201 63.5541 76.7414ZM55.0002 81.1917L55.0002 81.1921C55.095 82.678 55.6297 84.105 56.5527 85.1825C57.3996 86.1757 58.5299 86.8125 59.7544 86.8125C60.9919 86.8125 62.1126 86.1623 62.9538 85.1852L62.9552 85.1835C63.8779 84.1068 64.4135 82.6882 64.5085 81.1928C64.6043 79.7242 64.2169 78.2968 63.312 77.2419C62.4243 76.1805 61.1373 75.625 59.7544 75.625C58.3575 75.625 57.0714 76.1796 56.1833 77.2236C55.2743 78.2905 54.9049 79.6875 55.0002 81.1917ZM48.914 101.25C48.7492 100.928 48.6874 100.512 48.778 100.1C49.3535 97.5747 50.776 95.4956 52.8939 94.0556C54.7792 92.7755 57.2164 92.0544 59.7469 92.0544C62.3348 92.0544 64.7046 92.7452 66.6026 94.0247L66.6046 94.026C68.7227 95.4465 70.1466 97.5378 70.723 100.099C70.8125 100.505 70.754 100.915 70.5946 101.235L70.2788 100.002C68.8755 94.5228 63.636 92.6877 59.7544 92.6877C55.8849 92.6877 50.6574 94.5244 49.2382 99.9992L48.914 101.25ZM41.3703 82.7188C41.2729 81.2575 41.6903 79.9645 42.478 79.0376C43.2554 78.1301 44.3363 77.633 45.5485 77.633C46.7486 77.633 47.8303 78.1347 48.6103 79.0525L48.6107 79.0529C49.4078 79.9898 49.8239 81.2837 49.7268 82.7264L49.7264 82.732C49.544 85.6908 47.4878 87.7655 45.556 87.7655C43.6182 87.7655 41.5667 85.6922 41.3704 82.7195L41.3703 82.7188ZM69.3101 101.25H70.5871C70.5566 101.31 70.5225 101.366 70.4852 101.419L70.4817 101.424C70.2696 101.727 69.9682 101.875 69.6556 101.875H49.8531C49.5423 101.875 49.2371 101.728 49.0152 101.418C48.9782 101.365 48.9444 101.309 48.9141 101.25H50.2062H69.3101ZM45.556 78.2498C44.4553 78.2498 43.4347 78.6926 42.7225 79.5271L42.7224 79.5272C41.9962 80.3769 41.6968 81.4863 41.7788 82.6648C41.8557 83.8156 42.2736 84.8947 42.9086 85.7052C43.5348 86.5044 44.4602 87.1405 45.556 87.1405C46.6511 87.1405 47.5783 86.5052 48.2057 85.7059C48.8423 84.8949 49.2611 83.8141 49.3336 82.6603C49.4073 81.5039 49.0976 80.3844 48.3867 79.5407C47.6746 78.6947 46.6518 78.2498 45.556 78.2498Z" fill="#FB9381" stroke="#FB9381" stroke-width="2"/>
</svg>
