<svg width="109" height="118" viewBox="0 0 109 118" fill="none" xmlns="http://www.w3.org/2000/svg">
<ellipse cx="54.0316" cy="59" rx="54.0316" ry="59" fill="#ECF2FF"/>
<g clip-path="url(#clip0_427_309)">
<path d="M39.0312 76C37.3744 76 36.0312 77.3431 36.0312 79V97C36.0312 98.6569 37.3744 100 39.0313 100H56.5279L55.1946 97H39.0312V79L69.0312 79V91.83L71.912 93.1103C71.9522 93.1282 71.9919 93.1465 72.0312 93.1652V79C72.0312 77.3431 70.6881 76 69.0312 76H39.0312Z" fill="#407BFF"/>
<path d="M66.0312 89.5C66.0312 89.8254 65.9276 90.1266 65.7516 90.3724L60.4138 88H64.5312C65.3597 88 66.0312 88.6716 66.0312 89.5Z" fill="#407BFF"/>
<path fill-rule="evenodd" clip-rule="evenodd" d="M42.0312 83.5C42.0312 82.6716 42.7028 82 43.5312 82H51.0312C51.8597 82 52.5312 82.6716 52.5312 83.5V92.5C52.5312 93.3284 51.8597 94 51.0312 94H43.5312C42.7028 94 42.0312 93.3284 42.0312 92.5V83.5ZM45.0312 91V85H49.5312V91H45.0312Z" fill="#407BFF"/>
<path d="M55.5312 83.5C55.5312 82.6716 56.2028 82 57.0312 82H64.5312C65.3597 82 66.0312 82.6716 66.0312 83.5C66.0312 84.3284 65.3597 85 64.5312 85H57.0312C56.2028 85 55.5312 84.3284 55.5312 83.5Z" fill="#407BFF"/>
<path fill-rule="evenodd" clip-rule="evenodd" d="M70.646 98.6133L67.5523 99.8627C66.7974 100.168 66.1988 100.766 65.8939 101.521L64.6446 104.615C64.1487 105.843 62.4209 105.873 61.883 104.662L56.4185 92.3672C55.8606 91.112 57.1432 89.8294 58.3984 90.3872L70.6936 95.8517C71.9038 96.3896 71.874 98.1174 70.646 98.6133ZM66.2464 97.1582C64.8831 97.7618 63.7931 98.8518 63.1894 100.215L60.7439 94.7126L66.2464 97.1582Z" fill="#407BFF"/>
</g>
<defs>
<clipPath id="clip0_427_309">
<rect width="36" height="30" fill="white" transform="translate(36.0312 76)"/>
</clipPath>
</defs>
</svg>
