<svg width="109" height="118" viewBox="0 0 109 118" fill="none" xmlns="http://www.w3.org/2000/svg">
<ellipse cx="54.0316" cy="59" rx="54.0316" ry="59" fill="#FFFBF1"/>
<path fill-rule="evenodd" clip-rule="evenodd" d="M41.0161 98.7645L50.7187 88.9055C51.2301 88.3859 52.1203 88.3623 52.6646 88.8539L55.3403 91.2705C55.36 91.2884 55.3791 91.3067 55.3973 91.3253L58.7178 87.7264C59.2215 87.1806 60.1353 87.1431 60.6916 87.6455L67.7725 94.0411V77.625C67.7725 76.9576 67.1735 76.4166 66.4347 76.4166H42.3539C41.615 76.4166 41.0161 76.9576 41.0161 77.625V98.7645ZM42.8057 100.583H66.4343C67.1732 100.583 67.7722 100.042 67.7722 99.375V97.4588L59.8351 90.29L54.0839 96.5236C53.6109 97.0362 52.7673 97.1055 52.1997 96.6783C51.6321 96.251 51.5554 95.4891 52.0284 94.9764L53.7038 93.1605C53.6127 93.1108 53.5266 93.0505 53.448 92.9794L51.7756 91.4689L42.8057 100.583ZM42.3533 74H66.4341C68.6507 74 70.4476 75.623 70.4476 77.625V99.375C70.4476 101.377 68.6507 103 66.4341 103H42.3533C40.1367 103 38.3398 101.377 38.3398 99.375V77.625C38.3398 75.623 40.1367 74 42.3533 74ZM48.3706 87.2917C45.7846 87.2917 43.6882 85.3982 43.6882 83.0625C43.6882 80.7268 45.7846 78.8334 48.3706 78.8334C50.9566 78.8334 53.053 80.7268 53.053 83.0625C53.053 85.3982 50.9566 87.2917 48.3706 87.2917ZM48.3753 84.875C49.4836 84.875 50.382 84.0635 50.382 83.0625C50.382 82.0615 49.4836 81.25 48.3753 81.25C47.267 81.25 46.3685 82.0615 46.3685 83.0625C46.3685 84.0635 47.267 84.875 48.3753 84.875Z" fill="#F9CB40"/>
</svg>
