<svg width="109" height="118" viewBox="0 0 109 118" fill="none" xmlns="http://www.w3.org/2000/svg">
<ellipse cx="54.0316" cy="59" rx="54.0316" ry="59" fill="#ECF2FF"/>
<path d="M64.2537 88.4699C63.6196 88.4707 62.9991 88.6717 62.4672 89.0487C61.9352 89.4258 61.5145 89.9627 61.2556 90.5949H59.745L58.103 85.216C58.0122 84.9206 57.8373 84.6647 57.6039 84.4855C57.3704 84.3064 57.0906 84.2134 56.8053 84.2203C56.52 84.2271 56.2442 84.3333 56.0182 84.5234C55.7921 84.7136 55.6277 84.9777 55.5488 85.2771L53.2865 93.9232L50.3674 75.2139C50.3156 74.8841 50.1617 74.5838 49.9314 74.363C49.7011 74.1423 49.4084 74.0145 49.1023 74.0012C48.7961 73.9878 48.495 74.0896 48.2493 74.2895C48.0036 74.4895 47.8282 74.7755 47.7524 75.0997L44.1133 90.5949H40.293V93.5168H45.1581C45.4564 93.5168 45.7461 93.4079 45.9813 93.2074C46.2164 93.007 46.3835 92.7265 46.4559 92.4105L48.7881 82.2277L51.6226 100.398C51.6722 100.725 51.8224 101.025 52.0486 101.247C52.2747 101.468 52.5634 101.6 52.8669 101.618C52.8924 101.618 52.9168 101.618 52.9423 101.618C53.2334 101.618 53.5164 101.514 53.7485 101.323C53.9806 101.131 54.1492 100.862 54.2285 100.556L56.9329 90.6202L57.5113 92.5207C57.6005 92.811 57.7711 93.0634 57.9988 93.2422C58.2266 93.4209 58.5 93.517 58.7805 93.5168H61.2556C61.4964 94.1061 61.8783 94.6136 62.3612 94.9857C62.844 95.3578 63.4099 95.5807 63.999 95.6309C64.5882 95.6811 65.1789 95.5568 65.7088 95.2711C66.2387 94.9853 66.6881 94.5488 67.0097 94.0074C67.3314 93.466 67.5132 92.8399 67.5362 92.195C67.5591 91.5502 67.4222 90.9105 67.1401 90.3435C66.8579 89.7766 66.4408 89.3032 65.9328 88.9735C65.4248 88.6437 64.8447 88.4697 64.2537 88.4699Z" fill="#407BFF"/>
</svg>
