<svg width="109" height="118" viewBox="0 0 109 118" fill="none" xmlns="http://www.w3.org/2000/svg">
<ellipse cx="54.0316" cy="59" rx="54.0316" ry="59" fill="#EDF8F8"/>
<path fill-rule="evenodd" clip-rule="evenodd" d="M44.9649 74.5856C45.3083 74.9606 45.5012 75.4692 45.5012 75.9996C45.5012 76.5299 45.3083 77.0385 44.9649 77.4136C43.7742 78.7136 42.8297 80.257 42.1853 81.9557C41.5409 83.6543 41.2093 85.4749 41.2093 87.3136C41.2093 89.1522 41.5409 90.9728 42.1853 92.6715C42.8297 94.3701 43.7742 95.9135 44.9649 97.2136C45.1398 97.3981 45.2794 97.6188 45.3754 97.8628C45.4714 98.1068 45.5219 98.3692 45.524 98.6348C45.5261 98.9003 45.4798 99.1637 45.3877 99.4095C45.2956 99.6553 45.1596 99.8786 44.9876 100.066C44.8156 100.254 44.6111 100.403 44.386 100.503C44.161 100.604 43.9198 100.654 43.6766 100.652C43.4334 100.65 43.193 100.595 42.9696 100.49C42.7461 100.385 42.544 100.233 42.3751 100.042C40.8443 98.3701 39.6301 96.3858 38.8017 94.2019C37.9733 92.0181 37.5469 89.6774 37.5469 87.3136C37.5469 84.9498 37.9733 82.6091 38.8017 80.4252C39.6301 78.2413 40.8443 76.257 42.3751 74.5856C42.7185 74.2106 43.1843 74 43.67 74C44.1557 74 44.6214 74.2106 44.9649 74.5856ZM63.0975 74.5856C63.441 74.2106 63.9068 74 64.3925 74C64.8781 74 65.3439 74.2106 65.6874 74.5856C67.2181 76.257 68.4324 78.2413 69.2608 80.4252C70.0892 82.6091 70.5156 84.9498 70.5156 87.3136C70.5156 89.6774 70.0892 92.0181 69.2608 94.2019C68.4324 96.3858 67.2181 98.3701 65.6874 100.042C65.5184 100.233 65.3163 100.385 65.0929 100.49C64.8694 100.595 64.6291 100.65 64.3859 100.652C64.1427 100.654 63.9015 100.604 63.6764 100.503C63.4513 100.403 63.2468 100.254 63.0748 100.066C62.9029 99.8786 62.7669 99.6553 62.6748 99.4095C62.5827 99.1637 62.5363 98.9003 62.5385 98.6348C62.5406 98.3692 62.5911 98.1068 62.6871 97.8628C62.7831 97.6188 62.9226 97.3981 63.0975 97.2136C64.2882 95.9135 65.2327 94.3701 65.8771 92.6715C66.5215 90.9728 66.8532 89.1522 66.8532 87.3136C66.8532 85.4749 66.5215 83.6543 65.8771 81.9557C65.2327 80.257 64.2882 78.7136 63.0975 77.4136C62.7542 77.0385 62.5613 76.5299 62.5613 75.9996C62.5613 75.4692 62.7542 74.9606 63.0975 74.5856ZM50.1464 80.2416C50.4898 80.6166 50.6827 81.1252 50.6827 81.6556C50.6827 82.1859 50.4898 82.6945 50.1464 83.0696C49.6361 83.6267 49.2313 84.2882 48.9551 85.0162C48.6789 85.7443 48.5367 86.5246 48.5367 87.3126C48.5367 88.1006 48.6789 88.8809 48.9551 89.6089C49.2313 90.3369 49.6361 90.9984 50.1464 91.5556C50.3165 91.7414 50.4514 91.962 50.5434 92.2047C50.6353 92.4474 50.6826 92.7076 50.6826 92.9703C50.6825 93.233 50.635 93.4931 50.5429 93.7358C50.4507 93.9784 50.3157 94.1989 50.1455 94.3846C49.9754 94.5703 49.7734 94.7175 49.5511 94.818C49.3288 94.9184 49.0905 94.9701 48.85 94.97C48.6094 94.9699 48.3712 94.9181 48.149 94.8174C47.9267 94.7168 47.7248 94.5694 47.5548 94.3836C45.8379 92.5083 44.8735 89.9652 44.8735 87.3136C44.8735 84.6619 45.8379 82.1189 47.5548 80.2436C47.7249 80.0576 47.9269 79.9101 48.1492 79.8095C48.3716 79.7088 48.6099 79.657 48.8506 79.657C49.0913 79.657 49.3296 79.7088 49.552 79.8095C49.7743 79.9101 49.9763 80.0576 50.1464 80.2436V80.2416ZM57.916 80.2416C58.0861 80.0556 58.2881 79.9081 58.5105 79.8075C58.7328 79.7068 58.9711 79.655 59.2118 79.655C59.4525 79.655 59.6909 79.7068 59.9132 79.8075C60.1356 79.9081 60.3376 80.0556 60.5077 80.2416C61.3583 81.1702 62.0331 82.2727 62.4935 83.4861C62.9539 84.6996 63.1908 86.0001 63.1908 87.3136C63.1908 88.627 62.9539 89.9276 62.4935 91.141C62.0331 92.3544 61.3583 93.457 60.5077 94.3856C60.164 94.7609 59.6979 94.9717 59.2118 94.9717C58.7258 94.9717 58.2597 94.7609 57.916 94.3856C57.5723 94.0103 57.3792 93.5013 57.3792 92.9706C57.3792 92.4398 57.5723 91.9309 57.916 91.5556C58.9461 90.4304 59.5248 88.9046 59.5248 87.3136C59.5248 85.7226 58.9461 84.1967 57.916 83.0716C57.7457 82.8858 57.6106 82.6653 57.5184 82.4225C57.4263 82.1797 57.3788 81.9194 57.3788 81.6566C57.3788 81.3937 57.4263 81.1335 57.5184 80.8907C57.6106 80.6479 57.7457 80.4273 57.916 80.2416ZM54.0312 85.3136C54.517 85.3136 54.9829 85.5243 55.3263 85.8994C55.6698 86.2744 55.8628 86.7831 55.8628 87.3136V87.3336C55.8628 87.864 55.6698 88.3727 55.3263 88.7478C54.9829 89.1229 54.517 89.3336 54.0312 89.3336C53.5455 89.3336 53.0796 89.1229 52.7361 88.7478C52.3926 88.3727 52.1996 87.864 52.1996 87.3336V87.3136C52.1996 86.7831 52.3926 86.2744 52.7361 85.8994C53.0796 85.5243 53.5455 85.3136 54.0312 85.3136Z" fill="#3AB5AD"/>
</svg>
