<svg width="17" height="13" viewBox="0 0 17 13" fill="none" xmlns="http://www.w3.org/2000/svg">
<path d="M10.0833 6.49984L7.3125 8.08317V4.9165L10.0833 6.49984Z" fill="white" stroke="white" stroke-linecap="round" stroke-linejoin="round"/>
<path d="M0.583496 7.05945V5.93924C0.583496 3.64736 0.583496 2.50103 1.29995 1.76399C2.0172 1.02616 3.14612 0.99449 5.40316 0.930365C6.47191 0.900281 7.56441 0.878906 8.50016 0.878906C9.43512 0.878906 10.5276 0.900281 11.5972 0.930365C13.8542 0.99449 14.9831 1.02616 15.6996 1.76399C16.4168 2.50103 16.4168 3.64816 16.4168 5.93924V7.05945C16.4168 9.35212 16.4168 10.4977 15.7004 11.2355C14.9831 11.9725 13.855 12.005 11.5972 12.0683C10.5284 12.0992 9.43591 12.1206 8.50016 12.1206C7.5652 12.1206 6.4727 12.0992 5.40316 12.0683C3.14612 12.005 2.0172 11.9733 1.29995 11.2355C0.583496 10.4977 0.583496 9.35132 0.583496 7.06024V7.05945Z" stroke="white"/>
</svg>
